<?xml version="1.0" encoding="UTF-8" standalone="no"?>
<svg
   viewBox="0 0 384 512"
   version="1.1"
   id="svg250"
   sodipodi:docname="sticky_focus_active.svg"
   inkscape:version="1.2.2 (b0a8486541, 2022-12-01)"
   xmlns:inkscape="http://www.inkscape.org/namespaces/inkscape"
   xmlns:sodipodi="http://sodipodi.sourceforge.net/DTD/sodipodi-0.dtd"
   xmlns="http://www.w3.org/2000/svg"
   xmlns:svg="http://www.w3.org/2000/svg">
  <defs
     id="defs254" />
  <sodipodi:namedview
     id="namedview252"
     pagecolor="#ffffff"
     bordercolor="#000000"
     borderopacity="0.25"
     inkscape:showpageshadow="2"
     inkscape:pageopacity="0.0"
     inkscape:pagecheckerboard="0"
     inkscape:deskcolor="#d1d1d1"
     showgrid="false"
     inkscape:zoom="1.6523438"
     inkscape:cx="79.281321"
     inkscape:cy="255.99999"
     inkscape:window-width="1918"
     inkscape:window-height="1028"
     inkscape:window-x="0"
     inkscape:window-y="26"
     inkscape:window-maximized="1"
     inkscape:current-layer="svg250" />
  <!--!Font Awesome Free 6.5.2 by @fontawesome - https://fontawesome.com License - https://fontawesome.com/license/free Copyright 2024 Fonticons, Inc.-->
  <path
     d="m 71.997142,88 c 0,-13.275 10.725,-24 24,-24 H 287.99714 c 13.275,0 24,10.725 24,24 0,13.275 -10.725,24 -24,24 h -22.125 l 8.55,111.15 c 27.525,14.925 49.275,39.9 59.625,71.025 l 0.75,2.25 c 2.475,7.35 1.2,15.375 -3.3,21.6 -4.5,6.225 -11.775,9.975 -19.5,9.975 H 71.997142 c -7.725,0 -14.925,-3.675 -19.5,-9.975 -4.575,-6.3 -5.775,-14.325 -3.3,-21.6 l 0.75,-2.25 c 10.35,-31.125 32.1,-56.1 59.624998,-71.025 l 8.55,-111.15 H 95.997142 c -13.275,0 -24,-10.725 -24,-24 z m 95.999998,264 h 48 v 72 c 0,13.275 -10.725,24 -24,24 -13.275,0 -24,-10.725 -24,-24 z"
     id="path248"
     style="fill:#e6e6e6;stroke-width:0.75" />
</svg>
