<?xml version="1.0" encoding="UTF-8" standalone="no"?>
<svg
   width="48"
   height="48"
   version="1.1"
   id="svg24"
   sodipodi:docname="floating_focus_active.svg"
   inkscape:version="1.2.2 (b0a8486541, 2022-12-01)"
   inkscape:export-filename="floating_focus_active.png"
   inkscape:export-xdpi="96"
   inkscape:export-ydpi="96"
   xmlns:inkscape="http://www.inkscape.org/namespaces/inkscape"
   xmlns:sodipodi="http://sodipodi.sourceforge.net/DTD/sodipodi-0.dtd"
   xmlns="http://www.w3.org/2000/svg"
   xmlns:svg="http://www.w3.org/2000/svg">
  <defs
     id="defs28" />
  <sodipodi:namedview
     id="namedview26"
     pagecolor="#ffffff"
     bordercolor="#000000"
     borderopacity="0.25"
     inkscape:showpageshadow="2"
     inkscape:pageopacity="0.0"
     inkscape:pagecheckerboard="0"
     inkscape:deskcolor="#d1d1d1"
     showgrid="false"
     inkscape:zoom="17.625"
     inkscape:cx="24.056738"
     inkscape:cy="20.312057"
     inkscape:window-width="1918"
     inkscape:window-height="1028"
     inkscape:window-x="0"
     inkscape:window-y="26"
     inkscape:window-maximized="1"
     inkscape:current-layer="svg24" />
  <path
     style="opacity:0.2;fill:#37abc8;stroke-width:0.906627"
     d="M 27.4,10.613611 A 8.5,9.6702644 0 0 0 19.627149,16.385551 5.95,6.7691852 0 0 0 15.5,14.481717 5.95,6.7691852 0 0 0 9.55,21.250902 5.95,6.7691852 0 0 0 10.059668,23.970665 7.65,8.703238 0 0 0 7,30.921167 a 7.65,8.703238 0 0 0 7.225,8.678684 v 0.02455 h 0.425 17 0.425 v -0.017 A 9.35,10.637291 0 0 0 41,28.987114 9.35,10.637291 0 0 0 35.868457,19.50761 8.5,9.6702644 0 0 0 27.4,10.613611 Z"
     id="path2" />
  <ellipse
     style="fill:#37abc8;stroke-width:0.906627"
     cx="27.4"
     cy="19.316849"
     id="circle4"
     rx="8.5"
     ry="9.6702642" />
  <ellipse
     style="fill:#37abc8;stroke-width:0.906627"
     cx="14.65"
     cy="29.95414"
     id="circle6"
     rx="7.6500001"
     ry="8.7032375" />
  <ellipse
     style="fill:#37abc8;stroke-width:0.906627"
     cx="15.5"
     cy="20.283876"
     id="circle8"
     rx="5.9499998"
     ry="6.7691851" />
  <ellipse
     style="fill:#37abc8;stroke-width:0.906627"
     cx="31.65"
     cy="28.020084"
     id="circle10"
     rx="9.3500004"
     ry="10.637291" />
  <rect
     style="fill:#37abc8;stroke-width:0.906627"
     width="17.85"
     height="19.340528"
     x="14.225"
     y="19.316849"
     id="rect12" />
  <path
     style="opacity:0.2;fill:#37abc8;stroke-width:0.906627"
     d="M 27.4,9.6465841 A 8.5,9.6702644 0 0 0 19.627149,15.418524 5.95,6.7691852 0 0 0 15.5,13.51469 5.95,6.7691852 0 0 0 9.55,20.283875 5.95,6.7691852 0 0 0 9.5699219,20.72017 5.95,6.7691852 0 0 1 15.5,14.481716 5.95,6.7691852 0 0 1 19.627149,16.385549 8.5,9.6702644 0 0 1 27.4,10.61361 a 8.5,9.6702644 0 0 1 8.468457,8.894 9.35,10.637291 0 0 1 5.111621,9.033764 A 9.35,10.637291 0 0 0 41,28.020087 9.35,10.637291 0 0 0 35.868457,18.540583 8.5,9.6702644 0 0 0 27.4,9.6465841 Z M 9.817285,23.234061 a 7.65,8.703238 0 0 0 -2.8172851,6.720078 7.65,8.703238 0 0 0 0.021582,0.470292 7.65,8.703238 0 0 1 3.0380861,-6.453767 5.95,6.7691852 0 0 1 -0.242383,-0.736603 z"
     id="path22" />
</svg>
