<?xml version="1.0" encoding="UTF-8" standalone="no"?>
<svg
   width="48"
   height="48"
   version="1"
   id="svg18"
   sodipodi:docname="vm_clone_wizard.svg"
   inkscape:version="1.2.2 (b0a8486541, 2022-12-01)"
   xmlns:inkscape="http://www.inkscape.org/namespaces/inkscape"
   xmlns:sodipodi="http://sodipodi.sourceforge.net/DTD/sodipodi-0.dtd"
   xmlns="http://www.w3.org/2000/svg"
   xmlns:svg="http://www.w3.org/2000/svg">
  <defs
     id="defs22" />
  <sodipodi:namedview
     id="namedview20"
     pagecolor="#ffffff"
     bordercolor="#000000"
     borderopacity="0.25"
     inkscape:showpageshadow="2"
     inkscape:pageopacity="0.0"
     inkscape:pagecheckerboard="0"
     inkscape:deskcolor="#d1d1d1"
     showgrid="false"
     inkscape:zoom="17.625"
     inkscape:cx="24"
     inkscape:cy="21.219858"
     inkscape:window-width="1894"
     inkscape:window-height="1052"
     inkscape:window-x="0"
     inkscape:window-y="26"
     inkscape:window-maximized="1"
     inkscape:current-layer="svg18" />
  <rect
     style="opacity:0.2;stroke-width:0.974512"
     width="26.590876"
     height="28"
     x="-43.607071"
     y="-44"
     rx="2.0997295"
     ry="2.211"
     transform="matrix(0,-1,-1,0,0,0)"
     id="rect2" />
  <rect
     style="opacity:0.2;stroke-width:0.982179"
     width="27.010902"
     height="28"
     x="-32"
     y="-32"
     rx="2.1328967"
     ry="2.211"
     transform="matrix(0,-1,-1,0,0,0)"
     id="rect4" />
  <rect
     style="fill:#e95d1c;stroke-width:0.977982"
     width="26.780567"
     height="28"
     x="-43.753468"
     y="-44"
     rx="2.1147084"
     ry="2.211"
     transform="matrix(0,-1,-1,0,0,0)"
     id="rect6" />
  <path
     style="opacity:0.5;fill:#ffffff"
     d="m 39,40 v -8 h -4 v 4 h -4 v 4 h 4 z m -10,0 v -4 h -4 v -4 h -4 v 8 h 4 z M 39,30 v -8 h -4 -4 v 4 h 4 v 4 z m -14,0 v -4 h 4 v -4 h -4 -4 v 8 z"
     id="path8" />
  <rect
     style="fill:#2a7fff"
     width="28"
     height="28"
     x="-33"
     y="-32"
     rx="2.211"
     ry="2.211"
     transform="matrix(0,-1,-1,0,0,0)"
     id="rect10" />
  <path
     style="opacity:0.5;fill:#ffffff"
     d="m 27,28 v -8 h -4 v 4 h -4 v 4 h 4 z M 17,28 V 24 H 13 V 20 H 9 v 8 h 4 z M 27,18 v -8 h -4 -4 v 4 h 4 v 4 z m -14,0 v -4 h 4 V 10 H 13 9 v 8 z"
     id="path12" />
  <path
     style="opacity:0.1;fill:#ffffff;stroke-width:0.0643803"
     d="m 41.789062,41.802371 c 1.224632,0 2.210938,-0.0041 2.210938,-0.0092 v -0.0041 c 0,0.0051 -0.986306,0.0092 -2.210938,0.0092 H 18.210938 C 16.986306,41.798226 16,41.794138 16,41.789062 v 0.0041 c 0,0.0051 0.986306,0.0092 2.210938,0.0092 z"
     id="path14" />
  <path
     style="opacity:0.2;fill:#ffffff;stroke-width:0.0643803"
     d="m 29.789062,29.802371 c 1.224632,0 2.210938,-0.0041 2.210938,-0.0092 v -0.0041 c 0,0.0051 -0.986306,0.0092 -2.210938,0.0092 H 6.210938 C 4.986306,29.798226 4,29.794138 4,29.789062 v 0.0041 c 0,0.0051 0.986306,0.0092 2.210938,0.0092 z"
     id="path16" />
</svg>
