<?xml version="1.0" encoding="UTF-8" standalone="no"?>
<svg
   width="48"
   height="48"
   version="1"
   id="svg8"
   sodipodi:docname="sticky_focus_inactive.svg"
   inkscape:version="1.2.2 (b0a8486541, 2022-12-01)"
   xmlns:inkscape="http://www.inkscape.org/namespaces/inkscape"
   xmlns:sodipodi="http://sodipodi.sourceforge.net/DTD/sodipodi-0.dtd"
   xmlns="http://www.w3.org/2000/svg"
   xmlns:svg="http://www.w3.org/2000/svg">
  <defs
     id="defs12" />
  <sodipodi:namedview
     id="namedview10"
     pagecolor="#ffffff"
     bordercolor="#000000"
     borderopacity="0.25"
     inkscape:showpageshadow="2"
     inkscape:pageopacity="0.0"
     inkscape:pagecheckerboard="0"
     inkscape:deskcolor="#d1d1d1"
     showgrid="false"
     inkscape:zoom="17.625"
     inkscape:cx="10.893617"
     inkscape:cy="25.815603"
     inkscape:window-width="1918"
     inkscape:window-height="1028"
     inkscape:window-x="0"
     inkscape:window-y="26"
     inkscape:window-maximized="1"
     inkscape:current-layer="svg8" />
  <path
     style="opacity:0.2;stroke-width:0.8"
     d="m 24,8.9001665 c -1.514543,0.021353 -2.594663,0.9212548 -3.101562,2.4109375 l 0.01875,-0.06719 -2.379688,7.25625 h -8.025 c -0.0175,-2.77e-4 -0.03407,-2.77e-4 -0.05156,0 -0.9583248,0.03064 -1.822438,0.472003 -2.43125,1.203125 -1.3166792,1.490844 -1.0376098,3.836583 0.634375,4.948438 l 6.309375,4.548437 -2.448437,7.503125 c -0.0027,0.0083 -0.0053,0.01665 -0.0078,0.025 -0.374124,1.21229 -0.02231,2.461246 0.91875,3.315626 0.0068,0.0063 0.01491,0.01259 0.02187,0.01875 1.13086,0.991636 2.719785,1.117668 3.996874,0.296875 0.0243,-0.0155 0.04846,-0.03169 0.07187,-0.04844 L 24,35.700167 l 6.473438,4.610937 c 0.02342,0.01675 0.04758,0.03294 0.07187,0.04844 1.277088,0.820794 2.866014,0.694761 3.996874,-0.296875 0.007,-0.0062 0.01503,-0.01245 0.02187,-0.01875 0.941061,-0.854379 1.292874,-2.103336 0.91875,-3.315625 -0.0026,-0.0084 -0.0051,-0.0167 -0.0078,-0.025 l -2.448437,-7.503125 6.309375,-4.548438 c 1.671985,-1.111854 1.951054,-3.457593 0.634375,-4.948437 -0.608812,-0.731123 -1.472925,-1.172485 -2.43125,-1.203125 -0.0175,-2.77e-4 -0.03406,-2.77e-4 -0.05156,0 h -8.025 l -2.379687,-7.256251 0.01875,0.06719 C 26.594663,9.8214213 25.514543,8.9215193 24,8.9001665 Z"
     id="path2" />
  <path
     style="fill:#d45500;stroke-width:0.8"
     d="m 24,8.1000004 c -1.514543,0.021353 -2.594663,0.9212549 -3.101562,2.4109376 L 20.917187,10.44375 18.5375,17.7 h -8.025 c -0.0175,-2.76e-4 -0.03407,-2.76e-4 -0.05156,0 -0.9583253,0.03064 -1.8224385,0.472003 -2.4312505,1.203125 -1.3166792,1.490844 -1.0376098,3.836583 0.634375,4.948438 L 14.973438,28.4 12.525,35.903125 c -0.0027,0.0083 -0.0053,0.01665 -0.0078,0.025 -0.374124,1.21229 -0.02231,2.461247 0.91875,3.315626 0.0068,0.0063 0.01492,0.01259 0.02187,0.01875 1.13086,0.991636 2.719785,1.117669 3.996874,0.296876 0.0243,-0.0155 0.04846,-0.03169 0.07187,-0.04844 L 24,34.9 l 6.473438,4.610938 c 0.02342,0.01675 0.04758,0.03293 0.07187,0.04844 1.277089,0.820793 2.866014,0.69476 3.996874,-0.296876 0.007,-0.0062 0.01504,-0.01244 0.02188,-0.01875 0.941061,-0.854379 1.292875,-2.103336 0.918751,-3.315626 -0.0026,-0.0084 -0.0051,-0.0167 -0.0078,-0.025 L 33.026562,28.4 39.335938,23.851563 c 1.671984,-1.111855 1.951054,-3.457594 0.634375,-4.948438 C 39.361501,18.172003 38.497387,17.73064 37.539062,17.7 c -0.0175,-2.76e-4 -0.03407,-2.76e-4 -0.05156,0 h -8.025 l -2.379687,-7.25625 0.01875,0.06719 C 26.594663,9.0212553 25.514543,8.1213532 24,8.1000004 Z"
     id="path4" />
  <path
     style="opacity:0.2;fill:#ffffff;stroke-width:0.8"
     d="m 24,8.1000004 c -1.514543,0.021353 -2.594663,0.9212549 -3.101562,2.4109376 L 20.917187,10.44375 18.5375,17.7 h -8.025 c -0.0175,-2.76e-4 -0.03407,-2.76e-4 -0.05156,0 -0.9583253,0.03064 -1.8224385,0.472003 -2.4312505,1.203125 -0.6614148,0.748904 -0.9182199,1.712544 -0.8,2.628125 0.072807,-0.654504 0.3303585,-1.296361 0.8,-1.828125 0.60881,-0.731122 1.4729232,-1.172485 2.4312485,-1.203125 0.0175,-2.76e-4 0.03407,-2.76e-4 0.05156,0 h 8.025 l 2.379687,-7.25625 -0.01875,0.06719 C 21.405337,9.8212553 22.485457,8.9213532 24,8.9000004 c 1.514543,0.021353 2.594692,0.9212552 3.101562,2.4109376 L 27.082813,11.24375 29.4625,18.5 h 8.025 c 0.0175,-2.76e-4 0.03407,-2.76e-4 0.05156,0 0.958325,0.03064 1.822439,0.472003 2.431251,1.203125 0.469641,0.531764 0.727193,1.173621 0.8,1.828125 0.11822,-0.915581 -0.138586,-1.879221 -0.8,-2.628125 C 39.361501,18.172003 38.497387,17.73064 37.539062,17.7 c -0.0175,-2.76e-4 -0.03407,-2.76e-4 -0.05156,0 h -8.025 l -2.379687,-7.25625 0.01875,0.06719 C 26.594663,9.0212553 25.514543,8.1213532 24,8.1000004 Z M 14.7625,29.046876 12.525,35.903125 c -0.0027,0.0083 -0.0053,0.01665 -0.0078,0.025 -0.142811,0.462755 -0.178327,0.930234 -0.117188,1.379688 0.02333,-0.192933 0.05768,-0.386875 0.117188,-0.579688 0.0026,-0.0084 0.0051,-0.0167 0.0078,-0.025 L 14.973438,29.2 Z m 18.475,0 L 33.026562,29.2 35.475,36.703125 c 0.0027,0.0083 0.0053,0.01665 0.0078,0.025 0.0595,0.192813 0.09386,0.386755 0.117187,0.579688 0.06114,-0.449454 0.02562,-0.916933 -0.117187,-1.379688 -0.0026,-0.0084 -0.0051,-0.0167 -0.0078,-0.025 z"
     id="path6" />
</svg>
