<?xml version="1.0" encoding="UTF-8" standalone="no"?>
<svg
   width="64"
   height="64"
   version="1.1"
   id="svg48"
   sodipodi:docname="menu-circle-large.svg"
   inkscape:version="1.2.2 (b0a8486541, 2022-12-01)"
   xmlns:inkscape="http://www.inkscape.org/namespaces/inkscape"
   xmlns:sodipodi="http://sodipodi.sourceforge.net/DTD/sodipodi-0.dtd"
   xmlns="http://www.w3.org/2000/svg"
   xmlns:svg="http://www.w3.org/2000/svg">
  <defs
     id="defs52" />
  <sodipodi:namedview
     id="namedview50"
     pagecolor="#ffffff"
     bordercolor="#000000"
     borderopacity="0.25"
     inkscape:showpageshadow="2"
     inkscape:pageopacity="0.0"
     inkscape:pagecheckerboard="0"
     inkscape:deskcolor="#d1d1d1"
     showgrid="false"
     inkscape:zoom="12.84375"
     inkscape:cx="18.413625"
     inkscape:cy="30.871046"
     inkscape:window-width="1423"
     inkscape:window-height="1025"
     inkscape:window-x="495"
     inkscape:window-y="27"
     inkscape:window-maximized="0"
     inkscape:current-layer="svg48" />
  <rect
     width="49.755783"
     height="49.755783"
     x="6.7316546"
     y="6.7316499"
     fill="#24b7fa"
     rx="24.877892"
     ry="24.877892"
     id="rect44"
     style="fill:#0066ff;stroke-width:0.921404" />
  <path
     fill="#f9f9f9"
     d="m 20.608785,16.415292 c -0.954749,0.243099 -0.158318,3.051315 0.215121,4.370998 -1.07077,1.37836 -0.559554,3.185439 -0.157109,4.605715 0.705789,2.494461 2.805034,4.130292 4.687945,3.652476 1.881704,-0.476618 3.383926,-0.949644 2.676928,-3.445305 -0.36498,-1.289743 -2.229764,-1.026285 -1.90346,-3.113586 0.464083,-2.954316 -1.285892,-2.993835 -4.013576,-2.30166 -0.391569,-1.387941 -1.097359,-3.872823 -1.505849,-3.768638 z m 11.726513,-2.974674 c -0.408488,0.104185 0.293674,2.590266 0.686453,3.975811 -2.726478,0.690978 -4.222656,1.554399 -2.259979,3.89438 1.387409,1.652597 -0.368605,2.307647 -0.0036,3.597392 0.705792,2.494462 2.256353,2.195079 4.139265,1.716065 1.881705,-0.476618 2.830413,-2.886057 2.129457,-5.381716 -0.401187,-1.421473 -0.91361,-3.228551 -2.56811,-3.914737 -0.374647,-1.319682 -1.167453,-4.129097 -2.122203,-3.887195 z M 13.716456,29.230099 c -0.68162,0.172445 0.163152,3.155501 0.59823,4.689542 0.547469,1.935214 1.354777,3.217774 2.609246,4.106343 1.631537,1.158014 5.10852,0.723311 6.018555,-0.904137 0.453204,-0.814324 0.860484,-2.252561 -0.06042,-2.818995 L 17.07863,30.765337 c -0.669534,-0.407161 -1.482885,0.09581 -1.996516,0.693372 -0.314221,-1.1161 -0.680411,-2.407042 -1.362031,-2.234596 z M 45.079403,21.27608 c -0.681619,0.172444 -0.316638,1.464585 0,2.580685 -0.761382,-0.274234 -1.730635,-0.325728 -2.094407,0.34489 l -3.159136,5.809236 c -0.501547,0.923299 0.611522,1.975931 1.434541,2.466919 1.64604,0.979584 4.888566,-0.289803 5.688621,-2.065745 0.616359,-1.362794 0.638112,-2.854922 0.09065,-4.791332 C 46.604595,24.085494 45.76224,21.103635 45.079411,21.27608 Z M 31.227062,31.706598 c -6.043933,1.532844 -4.773752,4.897913 -5.628193,7.652241 -0.671951,2.167536 -3.451604,1.56877 -2.721643,4.149453 0.916077,3.233341 4.370098,4.42369 10.188033,2.948328 l 4.361638,-1.10652 c 5.816727,-1.474164 8.179433,-4.142269 7.263356,-7.376808 -0.729963,-2.580684 -2.819536,-0.744865 -4.547755,-2.302856 -2.194716,-1.98192 -2.871503,-5.496682 -8.916643,-3.963838 z"
     id="path46"
     style="stroke-width:1.20302" />
</svg>
