<?xml version="1.0" encoding="UTF-8" standalone="no"?>
<svg
   width="48"
   height="48"
   version="1.1"
   id="svg12"
   sodipodi:docname="menu-papirus-large.svg"
   inkscape:version="1.2.2 (b0a8486541, 2022-12-01)"
   xmlns:inkscape="http://www.inkscape.org/namespaces/inkscape"
   xmlns:sodipodi="http://sodipodi.sourceforge.net/DTD/sodipodi-0.dtd"
   xmlns="http://www.w3.org/2000/svg"
   xmlns:svg="http://www.w3.org/2000/svg">
  <defs
     id="defs16" />
  <sodipodi:namedview
     id="namedview14"
     pagecolor="#ffffff"
     bordercolor="#000000"
     borderopacity="0.25"
     inkscape:showpageshadow="2"
     inkscape:pageopacity="0.0"
     inkscape:pagecheckerboard="0"
     inkscape:deskcolor="#d1d1d1"
     showgrid="false"
     inkscape:zoom="17.083333"
     inkscape:cx="13.902439"
     inkscape:cy="21.073171"
     inkscape:window-width="1423"
     inkscape:window-height="1028"
     inkscape:window-x="495"
     inkscape:window-y="26"
     inkscape:window-maximized="0"
     inkscape:current-layer="svg12" />
  <path
     style="opacity:0.2"
     d="m 18.5,6 c -5.127433,0 -8.5,4.693721 -8.5,9.5 0,0.267291 0.114183,0.515443 0.134766,0.78125 C 6.6987446,16.955618 4,19.887471 4,23.5 c 0,4.05063 3,7.5 7,7.5 0,1 0,1.296661 0,2 0,3.886511 2.320265,7.097503 4.933594,8.753906 C 18.546923,43.41031 21.398061,44 24,44 26.601939,44 29.453077,43.41031 32.066406,41.753906 34.679735,40.097503 37,36.886511 37,33 c 0,-0.703339 0,-1 0,-2 4,0 7,-3.44937 7,-7.5 0,-3.612529 -2.698745,-6.544382 -6.134766,-7.21875 C 37.885817,16.015443 38,15.767291 38,15.5 38,10.693721 34.627433,6 29.5,6 27.257888,6 25.43575,6.9982102 24,8.4101562 22.56425,6.9982102 20.742112,6 18.5,6 Z"
     id="path2" />
  <path
     style="fill:#00bf86;stroke-width:0.911109"
     d="m 19.132478,6.1491892 c -4.57689,0 -7.587338,4.3649338 -7.587338,8.8345418 0,0.248567 0.101923,0.479336 0.120296,0.726524 -3.0670884,0.627129 -5.4760631,3.353611 -5.4760631,6.713088 0,3.766891 2.6778837,6.974639 6.2483961,6.974639 0,0.929952 0,1.205832 0,1.859903 0,3.614267 2.071133,6.600335 4.403863,8.140711 2.33273,1.540374 4.877735,2.088758 7.200299,2.088758 2.322563,0 4.867569,-0.548384 7.200299,-2.088758 2.33273,-1.540376 4.403864,-4.526444 4.403864,-8.140711 0,-0.654071 0,-0.929951 0,-1.859903 3.570511,0 6.248394,-3.207748 6.248394,-6.974639 0,-3.359477 -2.408975,-6.085959 -5.476063,-6.713088 0.01836,-0.247188 0.120296,-0.477957 0.120296,-0.726524 0,-4.469608 -3.010448,-8.8345418 -7.587336,-8.8345418 -2.001372,0 -3.627865,0.9282873 -4.909454,2.2413289 C 22.760341,7.0774765 21.13385,6.1491892 19.132478,6.1491892 Z"
     id="path4" />
  <path
     style="opacity:0.2"
     d="M 18.5,10 A 4.5,5.5 0 0 0 14,15.5 4.5,5.5 0 0 0 18.5,21 4.5,5.5 0 0 0 23,15.5 4.5,5.5 0 0 0 18.5,10 Z m 11,0 A 4.5,5.5 0 0 0 25,15.5 4.5,5.5 0 0 0 29.5,21 4.5,5.5 0 0 0 34,15.5 4.5,5.5 0 0 0 29.5,10 Z m -18,10 A 3.5,3.5 0 0 0 8,23.5 3.5,3.5 0 0 0 11.5,27 3.5,3.5 0 0 0 15,23.5 3.5,3.5 0 0 0 11.5,20 Z m 25,0 A 3.5,3.5 0 0 0 33,23.5 3.5,3.5 0 0 0 36.5,27 3.5,3.5 0 0 0 40,23.5 3.5,3.5 0 0 0 36.5,20 Z M 24,22 c -4.737557,0 -9,6 -9,11 0,5 5.199415,7 9,7 3.800585,0 9,-2 9,-7 0,-5 -4.262443,-11 -9,-11 z"
     id="path6" />
  <path
     style="fill:#313131;stroke-width:0.949409"
     d="m 18.523294,9.8640062 a 4.2350406,5.2677688 0 0 0 -4.235041,5.2677688 4.2350406,5.2677688 0 0 0 4.235041,5.267768 4.2350406,5.2677688 0 0 0 4.235041,-5.267768 4.2350406,5.2677688 0 0 0 -4.235041,-5.2677688 z m 10.35232,0 a 4.2350406,5.2677688 0 0 0 -4.23504,5.2677688 4.2350406,5.2677688 0 0 0 4.23504,5.267768 4.2350406,5.2677688 0 0 0 4.235041,-5.267768 4.2350406,5.2677688 0 0 0 -4.235041,-5.2677688 z M 11.935452,19.441768 a 3.2939205,3.3522164 0 0 0 -3.2939206,3.352217 3.2939205,3.3522164 0 0 0 3.2939206,3.352215 3.2939205,3.3522164 0 0 0 3.29392,-3.352215 3.2939205,3.3522164 0 0 0 -3.29392,-3.352217 z m 23.528004,0 a 3.2939205,3.3522164 0 0 0 -3.293921,3.352217 3.2939205,3.3522164 0 0 0 3.293921,3.352215 3.2939205,3.3522164 0 0 0 3.293921,-3.352215 3.2939205,3.3522164 0 0 0 -3.293921,-3.352217 z M 23.699453,21.35732 c -4.458609,0 -8.470081,5.746657 -8.470081,10.535537 0,4.788882 4.893275,6.704434 8.470081,6.704434 3.576808,0 8.470082,-1.915552 8.470082,-6.704434 0,-4.788881 -4.011471,-10.535537 -8.470082,-10.535537 z"
     id="path8" />
  <path
     style="opacity:0.1;fill:#ffffff"
     d="M 18.5 5 C 13.372567 5 10 9.6937208 10 14.5 C 10 14.574805 10.019871 14.646136 10.033203 14.71875 C 10.375331 10.198035 13.65122 6 18.5 6 C 20.742112 6 22.56425 6.9982103 24 8.4101562 C 25.43575 6.9982103 27.257888 6 29.5 6 C 34.34878 6 37.624669 10.198035 37.966797 14.71875 C 37.980129 14.646136 38 14.574805 38 14.5 C 38 9.6937208 34.627433 5 29.5 5 C 27.257888 5 25.43575 5.9982102 24 7.4101562 C 22.56425 5.9982102 20.742112 5 18.5 5 z M 10.007812 15.3125 C 6.6333315 16.033991 4 18.932691 4 22.5 C 4 22.668339 4.0132183 22.833943 4.0234375 23 C 4.259404 19.6198 6.8590268 16.92416 10.134766 16.28125 C 10.114183 16.015443 10 15.767291 10 15.5 C 10 15.437314 10.006669 15.375137 10.007812 15.3125 z M 37.992188 15.3125 C 37.993331 15.375137 38 15.437314 38 15.5 C 38 15.767291 37.885817 16.015443 37.865234 16.28125 C 41.140973 16.92416 43.740596 19.6198 43.976562 23 C 43.986782 22.833943 44 22.668339 44 22.5 C 44 18.932691 41.366668 16.033991 37.992188 15.3125 z"
     id="path10" />
</svg>
