<?xml version="1.0" encoding="UTF-8" standalone="no"?>
<svg
   width="48"
   height="48"
   version="1.1"
   id="svg12"
   sodipodi:docname="menu.svg"
   inkscape:version="1.2.2 (b0a8486541, 2022-12-01)"
   xmlns:inkscape="http://www.inkscape.org/namespaces/inkscape"
   xmlns:sodipodi="http://sodipodi.sourceforge.net/DTD/sodipodi-0.dtd"
   xmlns="http://www.w3.org/2000/svg"
   xmlns:svg="http://www.w3.org/2000/svg">
  <defs
     id="defs16" />
  <sodipodi:namedview
     id="namedview14"
     pagecolor="#ffffff"
     bordercolor="#000000"
     borderopacity="0.25"
     inkscape:showpageshadow="2"
     inkscape:pageopacity="0.0"
     inkscape:pagecheckerboard="0"
     inkscape:deskcolor="#d1d1d1"
     showgrid="false"
     inkscape:zoom="17.083333"
     inkscape:cx="24.117074"
     inkscape:cy="36.058537"
     inkscape:window-width="1920"
     inkscape:window-height="1028"
     inkscape:window-x="0"
     inkscape:window-y="0"
     inkscape:window-maximized="1"
     inkscape:current-layer="svg12" />
  <path
     style="opacity:0.2"
     d="m 18.5,6 c -5.127433,0 -8.5,4.693721 -8.5,9.5 0,0.267291 0.114183,0.515443 0.134766,0.78125 C 6.6987446,16.955618 4,19.887471 4,23.5 c 0,4.05063 3,7.5 7,7.5 0,1 0,1.296661 0,2 0,3.886511 2.320265,7.097503 4.933594,8.753906 C 18.546923,43.41031 21.398061,44 24,44 26.601939,44 29.453077,43.41031 32.066406,41.753906 34.679735,40.097503 37,36.886511 37,33 c 0,-0.703339 0,-1 0,-2 4,0 7,-3.44937 7,-7.5 0,-3.612529 -2.698745,-6.544382 -6.134766,-7.21875 C 37.885817,16.015443 38,15.767291 38,15.5 38,10.693721 34.627433,6 29.5,6 27.257888,6 25.43575,6.9982102 24,8.4101562 22.56425,6.9982102 20.742112,6 18.5,6 Z"
     id="path2" />
  <path
     style="fill:#00bf86;stroke-width:1.07849"
     d="m 18.230552,2.9031646 c -5.41772,0 -8.9812233,5.1668249 -8.9812233,10.4575534 0,0.294232 0.1206472,0.567397 0.1423957,0.859997 -3.6305502,0.74234 -6.4820827,3.96971 -6.4820827,7.946363 0,4.458915 3.1698433,8.255965 7.3963023,8.255965 0,1.100795 0,1.427357 0,2.201589 0,4.278252 2.451625,7.812897 5.212906,9.636258 2.761281,1.82336 5.773834,2.472488 8.523081,2.472488 2.749246,0 5.7618,-0.649128 8.523081,-2.472488 2.761281,-1.823361 5.212907,-5.358006 5.212907,-9.636258 0,-0.774232 0,-1.100794 0,-2.201589 4.226457,0 7.3963,-3.79705 7.3963,-8.255965 0,-3.976653 -2.851533,-7.204023 -6.482082,-7.946363 0.02174,-0.2926 0.142396,-0.565765 0.142396,-0.859997 0,-5.2907285 -3.563504,-10.4575534 -8.981222,-10.4575534 -2.369048,0 -4.294347,1.098825 -5.81138,2.6530882 C 22.524897,4.0019896 20.5996,2.9031646 18.230552,2.9031646 Z"
     id="path4" />
  <path
     style="opacity:0.2"
     d="M 18.5,10 A 4.5,5.5 0 0 0 14,15.5 4.5,5.5 0 0 0 18.5,21 4.5,5.5 0 0 0 23,15.5 4.5,5.5 0 0 0 18.5,10 Z m 11,0 A 4.5,5.5 0 0 0 25,15.5 4.5,5.5 0 0 0 29.5,21 4.5,5.5 0 0 0 34,15.5 4.5,5.5 0 0 0 29.5,10 Z m -18,10 A 3.5,3.5 0 0 0 8,23.5 3.5,3.5 0 0 0 11.5,27 3.5,3.5 0 0 0 15,23.5 3.5,3.5 0 0 0 11.5,20 Z m 25,0 A 3.5,3.5 0 0 0 33,23.5 3.5,3.5 0 0 0 36.5,27 3.5,3.5 0 0 0 40,23.5 3.5,3.5 0 0 0 36.5,20 Z M 24,22 c -4.737557,0 -9,6 -9,11 0,5 5.199415,7 9,7 3.800585,0 9,-2 9,-7 0,-5 -4.262443,-11 -9,-11 z"
     id="path6" />
  <path
     style="fill:#313131;stroke-width:1.12383"
     d="m 17.57237,7.2246799 a 5.0130689,6.2355217 0 0 0 -5.013069,6.2355221 5.0130689,6.2355217 0 0 0 5.013069,6.235521 5.0130689,6.2355217 0 0 0 5.013069,-6.235521 5.0130689,6.2355217 0 0 0 -5.013069,-6.2355221 z m 12.254168,0 a 5.0130689,6.2355217 0 0 0 -5.013069,6.2355221 5.0130689,6.2355217 0 0 0 5.013069,6.235521 5.0130689,6.2355217 0 0 0 5.013069,-6.235521 5.0130689,6.2355217 0 0 0 -5.013069,-6.2355221 z M 9.7742618,18.561993 a 3.8990536,3.9680592 0 0 0 -3.8990534,3.96806 3.8990536,3.9680592 0 0 0 3.8990534,3.968057 3.8990536,3.9680592 0 0 0 3.8990542,-3.968057 3.8990536,3.9680592 0 0 0 -3.8990542,-3.96806 z m 27.8503842,0 a 3.8990536,3.9680592 0 0 0 -3.899055,3.96806 3.8990536,3.9680592 0 0 0 3.899055,3.968057 3.8990536,3.9680592 0 0 0 3.899053,-3.968057 3.8990536,3.9680592 0 0 0 -3.899053,-3.96806 z m -13.925193,2.267461 c -5.27771,0 -10.026137,6.802388 -10.026137,12.471044 0,5.668657 5.792228,7.936119 10.026137,7.936119 4.233911,0 10.026138,-2.267462 10.026138,-7.936119 0,-5.668656 -4.748426,-12.471044 -10.026138,-12.471044 z"
     id="path8" />
  <path
     style="opacity:0.1;fill:#ffffff"
     d="M 18.5 5 C 13.372567 5 10 9.6937208 10 14.5 C 10 14.574805 10.019871 14.646136 10.033203 14.71875 C 10.375331 10.198035 13.65122 6 18.5 6 C 20.742112 6 22.56425 6.9982103 24 8.4101562 C 25.43575 6.9982103 27.257888 6 29.5 6 C 34.34878 6 37.624669 10.198035 37.966797 14.71875 C 37.980129 14.646136 38 14.574805 38 14.5 C 38 9.6937208 34.627433 5 29.5 5 C 27.257888 5 25.43575 5.9982102 24 7.4101562 C 22.56425 5.9982102 20.742112 5 18.5 5 z M 10.007812 15.3125 C 6.6333315 16.033991 4 18.932691 4 22.5 C 4 22.668339 4.0132183 22.833943 4.0234375 23 C 4.259404 19.6198 6.8590268 16.92416 10.134766 16.28125 C 10.114183 16.015443 10 15.767291 10 15.5 C 10 15.437314 10.006669 15.375137 10.007812 15.3125 z M 37.992188 15.3125 C 37.993331 15.375137 38 15.437314 38 15.5 C 38 15.767291 37.885817 16.015443 37.865234 16.28125 C 41.140973 16.92416 43.740596 19.6198 43.976562 23 C 43.986782 22.833943 44 22.668339 44 22.5 C 44 18.932691 41.366668 16.033991 37.992188 15.3125 z"
     id="path10" />
</svg>
