<?xml version="1.0" encoding="UTF-8" standalone="no"?>
<svg
   viewBox="0 0 512 512"
   version="1.1"
   id="svg1075"
   sodipodi:docname="recents.svg"
   inkscape:version="1.2.2 (b0a8486541, 2022-12-01)"
   xmlns:inkscape="http://www.inkscape.org/namespaces/inkscape"
   xmlns:sodipodi="http://sodipodi.sourceforge.net/DTD/sodipodi-0.dtd"
   xmlns="http://www.w3.org/2000/svg"
   xmlns:svg="http://www.w3.org/2000/svg">
  <defs
     id="defs1079" />
  <sodipodi:namedview
     id="namedview1077"
     pagecolor="#ffffff"
     bordercolor="#000000"
     borderopacity="0.25"
     inkscape:showpageshadow="2"
     inkscape:pageopacity="0.0"
     inkscape:pagecheckerboard="0"
     inkscape:deskcolor="#d1d1d1"
     showgrid="false"
     inkscape:zoom="1.5800781"
     inkscape:cx="256.63288"
     inkscape:cy="484.78616"
     inkscape:window-width="1423"
     inkscape:window-height="1026"
     inkscape:window-x="0"
     inkscape:window-y="0"
     inkscape:window-maximized="0"
     inkscape:current-layer="svg1075" />
  <!--!Font Awesome Free 6.5.1 by @fontawesome - https://fontawesome.com License - https://fontawesome.com/license/free Copyright 2024 Fonticons, Inc.-->
  <path
     d="M 464,488.31246 H 48 c -26.5,0 -48,-21.89892 -48,-48.89062 V 80.890621 C 0,53.898924 21.5,32 48,32 h 416 c 26.5,0 48,21.898924 48,48.890621 V 439.42184 c 0,26.9917 -21.5,48.89062 -48,48.89062 z M 128,121.6328 c -22.1,0 -40,18.23213 -40,40.74219 0,22.51006 17.9,40.74218 40,40.74218 22.1,0 40,-18.23212 40,-40.74218 0,-22.51006 -17.9,-40.74219 -40,-40.74219 z m 0,97.78125 c -22.1,0 -40,18.23212 -40,40.74218 0,22.51006 17.9,40.74218 40,40.74218 22.1,0 40,-18.23212 40,-40.74218 0,-22.51006 -17.9,-40.74218 -40,-40.74218 z m 0,97.78124 c -22.1,0 -40,18.23213 -40,40.74218 0,22.51006 17.9,40.74219 40,40.74219 22.1,0 40,-18.23213 40,-40.74219 0,-22.51005 -17.9,-40.74218 -40,-40.74218 z M 416,178.67186 v -32.59374 c 0,-6.72247 -5.4,-12.22266 -12,-12.22266 H 204 c -6.6,0 -12,5.50019 -12,12.22266 v 32.59374 c 0,6.72246 5.4,12.22266 12,12.22266 h 200 c 6.6,0 12,-5.5002 12,-12.22266 z m 0,97.78124 v -32.59374 c 0,-6.72246 -5.4,-12.22266 -12,-12.22266 H 204 c -6.6,0 -12,5.5002 -12,12.22266 v 32.59374 c 0,6.72246 5.4,12.22266 12,12.22266 h 200 c 6.6,0 12,-5.5002 12,-12.22266 z m 0,97.78125 V 341.6406 c 0,-6.72246 -5.4,-12.22266 -12,-12.22266 H 204 c -6.6,0 -12,5.5002 -12,12.22266 v 32.59375 c 0,6.72246 5.4,12.22265 12,12.22265 h 200 c 6.6,0 12,-5.50019 12,-12.22265 z"
     id="path1073"
     style="stroke-width:1.00923;fill:#c2ccd5" />
</svg>
