<?xml version="1.0" encoding="UTF-8" standalone="no"?>
<svg
   viewBox="0 0 448 512"
   version="1.1"
   id="svg4"
   sodipodi:docname="square-white.svg"
   inkscape:version="1.2.2 (b0a8486541, 2022-12-01)"
   xmlns:inkscape="http://www.inkscape.org/namespaces/inkscape"
   xmlns:sodipodi="http://sodipodi.sourceforge.net/DTD/sodipodi-0.dtd"
   xmlns="http://www.w3.org/2000/svg"
   xmlns:svg="http://www.w3.org/2000/svg">
  <defs
     id="defs8" />
  <sodipodi:namedview
     id="namedview6"
     pagecolor="#ffffff"
     bordercolor="#000000"
     borderopacity="0.25"
     inkscape:showpageshadow="2"
     inkscape:pageopacity="0.0"
     inkscape:pagecheckerboard="0"
     inkscape:deskcolor="#d1d1d1"
     showgrid="false"
     inkscape:zoom="1.6640625"
     inkscape:cx="209.7277"
     inkscape:cy="254.79812"
     inkscape:window-width="1918"
     inkscape:window-height="1026"
     inkscape:window-x="0"
     inkscape:window-y="26"
     inkscape:window-maximized="1"
     inkscape:current-layer="svg4" />
  <!--!Font Awesome Free 6.5.2 by @fontawesome - https://fontawesome.com License - https://fontawesome.com/license/free Copyright 2024 Fonticons, Inc.-->
  <path
     d="m 118.10774,377.57992 c -5.71254,0 -10.38644,-4.97372 -10.38644,-11.05272 V 145.4728 c 0,-6.079 4.6739,-11.05272 10.38644,-11.05272 h 207.72869 c 5.71254,0 10.38643,4.97372 10.38643,11.05272 v 221.0544 c 0,6.079 -4.67389,11.05272 -10.38643,11.05272 z M 76.562,366.5272 c 0,24.38506 18.630667,44.21088 41.54574,44.21088 h 207.72869 c 22.91507,0 41.54574,-19.82582 41.54574,-44.21088 V 145.4728 c 0,-24.38506 -18.63067,-44.21088 -41.54574,-44.21088 H 118.10774 c -22.915073,0 -41.54574,19.82582 -41.54574,44.21088 z m 145.41008,-44.21088 c 4.34933,0 8.43898,-1.93423 11.42508,-5.31912 l 67.51182,-77.36904 c 4.2195,-4.83557 5.32305,-11.88168 2.85628,-17.89159 -2.46678,-6.00992 -8.11441,-9.94745 -14.28135,-9.94745 H 154.46026 c -6.16694,0 -11.81457,3.93753 -14.28135,9.94745 -2.46678,6.00991 -1.36322,13.05602 2.85627,17.89159 l 67.51183,77.36904 c 2.92118,3.38489 7.07575,5.31912 11.42507,5.31912 z"
     id="path2"
     style="opacity:1;fill:#d9d9d9;fill-opacity:1;stroke-width:0.66965" />
</svg>
