<?xml version="1.0" encoding="UTF-8" standalone="no"?>
<svg
   width="48"
   height="48"
   version="1.1"
   id="svg12"
   sodipodi:docname="lilidog-html.svg"
   inkscape:version="1.2.2 (b0a8486541, 2022-12-01)"
   xmlns:inkscape="http://www.inkscape.org/namespaces/inkscape"
   xmlns:sodipodi="http://sodipodi.sourceforge.net/DTD/sodipodi-0.dtd"
   xmlns="http://www.w3.org/2000/svg"
   xmlns:svg="http://www.w3.org/2000/svg">
  <defs
     id="defs16" />
  <sodipodi:namedview
     id="namedview14"
     pagecolor="#ffffff"
     bordercolor="#000000"
     borderopacity="0.25"
     inkscape:showpageshadow="2"
     inkscape:pageopacity="0.0"
     inkscape:pagecheckerboard="0"
     inkscape:deskcolor="#d1d1d1"
     showgrid="false"
     inkscape:zoom="17"
     inkscape:cx="13.176471"
     inkscape:cy="24"
     inkscape:window-width="1920"
     inkscape:window-height="1032"
     inkscape:window-x="0"
     inkscape:window-y="22"
     inkscape:window-maximized="1"
     inkscape:current-layer="svg12" />
  <path
     style="opacity:0.2;stroke-width:0.990505"
     d="M 29.735454,6.045643 C 25.435226,3.3058211 20.05037,5.3657931 17.432683,9.3204969 17.287106,9.5404294 17.247714,9.8056271 17.120208,10.035337 13.871231,8.7541972 10.011072,9.7245227 8.0435472,12.696984 c -2.2061312,3.332942 -1.5687811,7.77419 1.7859012,9.911573 -0.544639,0.822821 -0.7062122,1.066919 -1.0892781,1.645641 -2.1167456,3.197899 -1.9196392,7.079793 -0.6300588,9.839136 1.2895798,2.759345 3.3595775,4.768046 5.5417465,6.158382 2.18217,1.390334 4.894504,2.428619 7.988368,2.462117 3.093864,0.0335 6.788634,-1.368746 8.905379,-4.566646 0.383066,-0.578722 0.544639,-0.822821 1.089278,-1.64564 3.354682,2.137382 7.749356,0.902208 9.955487,-2.430732 1.967524,-2.972463 1.300968,-6.826914 -1.213435,-9.21782 0.162031,-0.207714 0.392947,-0.350885 0.538524,-0.570817 2.617687,-3.954704 2.345598,-9.61891 -1.954629,-12.358732 C 37.080436,10.725383 35.008599,10.573079 33.035477,10.96767 32.600356,9.0387053 31.615847,7.243706 29.735454,6.045643 Z"
     id="path2" />
  <path
     style="fill:#006680"
     d="M 29.834493,5.1000346 C 25.548947,2.2849569 20.153171,4.3563871 17.514414,8.3735106 17.367665,8.5969144 17.326859,8.8670107 17.198128,9.1004747 13.956033,7.7776623 10.090748,8.7464543 8.107387,11.765833 c -2.2238883,3.385546 -1.6102491,7.915623 1.7329804,10.111715 -0.5490228,0.835807 -0.7118965,1.083758 -1.0980456,1.671614 -2.1337833,3.248375 -1.9573966,7.206024 -0.68256,10.025235 1.274836,2.819212 3.3340852,4.877419 5.5088042,6.305943 2.17472,1.428524 4.881476,2.500996 7.975119,2.551339 3.093642,0.05034 6.795845,-1.359549 8.929628,-4.607923 0.386149,-0.587856 0.549023,-0.835808 1.098046,-1.671615 3.343229,2.196091 7.744434,0.960151 9.968322,-2.425396 1.983361,-3.019378 1.337385,-6.951515 -1.164224,-9.401611 0.163138,-0.210862 0.394814,-0.355581 0.541563,-0.578984 2.638757,-4.017124 2.3969,-9.791787 -1.888646,-12.606864 -1.873974,-1.230971 -3.94497,-1.3970549 -5.920171,-1.0052 -0.42482,-1.9683739 -1.399736,-3.8030807 -3.27371,-5.0340514 z"
     id="path4" />
  <path
     style="opacity:0.2"
     d="m 27.638402,9.4432641 a 4.5,5.5 33.3 0 0 -6.780759,2.1263379 4.5,5.5 33.3 0 0 0.741508,7.067543 4.5,5.5 33.3 0 0 6.780758,-2.126338 4.5,5.5 33.3 0 0 -0.741507,-7.0675429 z m 9.193881,6.0392509 a 4.5,5.5 33.3 0 0 -6.780759,2.126338 4.5,5.5 33.3 0 0 0.741508,7.067543 4.5,5.5 33.3 0 0 6.780758,-2.126338 4.5,5.5 33.3 0 0 -0.741507,-7.067543 z M 16.297522,13.958178 a 3.5,3.5 0 0 0 -4.846906,1.003746 3.5,3.5 0 0 0 1.003746,4.846905 3.5,3.5 0 0 0 4.846906,-1.003745 3.5,3.5 0 0 0 -1.003746,-4.846906 z m 20.895184,13.72557 a 3.5,3.5 0 0 0 -4.846906,1.003746 3.5,3.5 0 0 0 1.003746,4.846906 3.5,3.5 0 0 0 4.846906,-1.003746 3.5,3.5 0 0 0 -1.003746,-4.846906 z m -11.545638,-5.19117 c -3.959685,-2.601027 -10.816403,0.07364 -13.561517,4.252676 -2.7451139,4.179036 0.50255,8.705249 3.679107,10.791856 3.176557,2.086608 8.620312,3.269591 11.365426,-0.909446 2.745114,-4.179037 2.476669,-11.534059 -1.483016,-14.135086 z"
     id="path6" />
  <path
     style="fill:#5fd3bc"
     d="m 27.638402,8.4432641 a 4.5,5.5 33.3 0 0 -6.780759,2.1263379 4.5,5.5 33.3 0 0 0.741508,7.067543 4.5,5.5 33.3 0 0 6.780758,-2.126338 4.5,5.5 33.3 0 0 -0.741507,-7.0675429 z m 9.193881,6.0392509 a 4.5,5.5 33.3 0 0 -6.780759,2.126338 4.5,5.5 33.3 0 0 0.741508,7.067543 4.5,5.5 33.3 0 0 6.780758,-2.126338 4.5,5.5 33.3 0 0 -0.741507,-7.067543 z M 16.297522,12.958178 a 3.5,3.5 0 0 0 -4.846906,1.003746 3.5,3.5 0 0 0 1.003746,4.846905 3.5,3.5 0 0 0 4.846906,-1.003745 3.5,3.5 0 0 0 -1.003746,-4.846906 z m 20.895184,13.72557 a 3.5,3.5 0 0 0 -4.846906,1.003746 3.5,3.5 0 0 0 1.003746,4.846906 3.5,3.5 0 0 0 4.846906,-1.003746 3.5,3.5 0 0 0 -1.003746,-4.846906 z m -11.545638,-5.19117 c -3.959685,-2.601027 -10.816403,0.07364 -13.561517,4.252676 -2.7451139,4.179036 0.50255,8.705249 3.679107,10.791856 3.176557,2.086608 8.620312,3.269591 11.365426,-0.909446 2.745114,-4.179037 2.476669,-11.534059 -1.483016,-14.135086 z"
     id="path8" />
  <path
     style="opacity:0.1;fill:#ffffff"
     d="M 18.5 5 C 13.372567 5 10 9.6937208 10 14.5 C 10 14.574805 10.019871 14.646136 10.033203 14.71875 C 10.375331 10.198035 13.65122 6 18.5 6 C 20.742112 6 22.56425 6.9982103 24 8.4101562 C 25.43575 6.9982103 27.257888 6 29.5 6 C 34.34878 6 37.624669 10.198035 37.966797 14.71875 C 37.980129 14.646136 38 14.574805 38 14.5 C 38 9.6937208 34.627433 5 29.5 5 C 27.257888 5 25.43575 5.9982102 24 7.4101562 C 22.56425 5.9982102 20.742112 5 18.5 5 z M 10.007812 15.3125 C 6.6333315 16.033991 4 18.932691 4 22.5 C 4 22.668339 4.0132183 22.833943 4.0234375 23 C 4.259404 19.6198 6.8590268 16.92416 10.134766 16.28125 C 10.114183 16.015443 10 15.767291 10 15.5 C 10 15.437314 10.006669 15.375137 10.007812 15.3125 z M 37.992188 15.3125 C 37.993331 15.375137 38 15.437314 38 15.5 C 38 15.767291 37.885817 16.015443 37.865234 16.28125 C 41.140973 16.92416 43.740596 19.6198 43.976562 23 C 43.986782 22.833943 44 22.668339 44 22.5 C 44 18.932691 41.366668 16.033991 37.992188 15.3125 z"
     id="path10" />
</svg>
