<?xml version="1.0" encoding="UTF-8" standalone="no"?>
<svg
   viewBox="0 0 16.000002 13"
   version="1.1"
   id="svg12"
   sodipodi:docname="bone.svg"
   inkscape:version="1.2.2 (b0a8486541, 2022-12-01)"
   width="16.000002"
   height="13"
   xmlns:inkscape="http://www.inkscape.org/namespaces/inkscape"
   xmlns:sodipodi="http://sodipodi.sourceforge.net/DTD/sodipodi-0.dtd"
   xmlns="http://www.w3.org/2000/svg"
   xmlns:svg="http://www.w3.org/2000/svg">
  <defs
     id="defs16" />
  <sodipodi:namedview
     id="namedview14"
     pagecolor="#ffffff"
     bordercolor="#000000"
     borderopacity="0.25"
     inkscape:showpageshadow="2"
     inkscape:pageopacity="0.0"
     inkscape:pagecheckerboard="0"
     inkscape:deskcolor="#d1d1d1"
     showgrid="false"
     inkscape:zoom="1.6640625"
     inkscape:cx="287.84977"
     inkscape:cy="159.84977"
     inkscape:window-width="1918"
     inkscape:window-height="1026"
     inkscape:window-x="0"
     inkscape:window-y="26"
     inkscape:window-maximized="1"
     inkscape:current-layer="svg12" />
  <!--!Font Awesome Free 6.5.2 by @fontawesome - https://fontawesome.com License - https://fontawesome.com/license/free Copyright 2024 Fonticons, Inc.-->
  <path
     d="M 4.2694448,1.9825 C 4.4611115,2.644687 4.8416671,3.25 5.3333338,3.25 h 5.3333342 c 0.491666,0 0.872222,-0.605313 1.063888,-1.2675 C 12.066668,0.816562 12.858334,0 13.777779,0 c 1.227778,0 2.222222,1.454375 2.222222,3.25 0,1.235 -0.472222,2.31156 -1.166666,2.86 -0.1,0.0772 -0.166667,0.22344 -0.166667,0.39 0,0.16656 0.06667,0.31281 0.166667,0.39 0.694444,0.54844 1.166666,1.625 1.166666,2.86 0,1.79563 -0.994444,3.25 -2.222222,3.25 -0.919445,0 -1.711111,-0.81656 -2.047223,-1.9825 C 11.53889,10.35531 11.158334,9.75 10.666668,9.75 H 5.3333338 c -0.4916667,0 -0.8722223,0.60531 -1.063889,1.2675 C 3.9333336,12.18344 3.1416669,13 2.2222224,13 0.99444452,13 0,11.54563 0,9.75 0,8.515 0.47222226,7.43844 1.1666668,6.89 c 0.1,-0.0772 0.1666666,-0.22344 0.1666666,-0.39 0,-0.16656 -0.066667,-0.31281 -0.1666666,-0.39 C 0.47222226,5.56156 0,4.485 0,3.25 0,1.454375 0.99444452,0 2.2222224,0 3.1416669,0 3.9333336,0.816562 4.2694448,1.9825 Z"
     id="path10"
     style="fill:#cccccc;stroke-width:1" />
</svg>
