<?xml version="1.0" encoding="UTF-8" standalone="no"?>
<svg
   viewBox="0 0 16.000002 15.500001"
   version="1.1"
   id="svg20"
   sodipodi:docname="display.svg"
   inkscape:version="1.2.2 (b0a8486541, 2022-12-01)"
   width="16.000002"
   height="15.500001"
   xmlns:inkscape="http://www.inkscape.org/namespaces/inkscape"
   xmlns:sodipodi="http://sodipodi.sourceforge.net/DTD/sodipodi-0.dtd"
   xmlns="http://www.w3.org/2000/svg"
   xmlns:svg="http://www.w3.org/2000/svg">
  <defs
     id="defs24" />
  <sodipodi:namedview
     id="namedview22"
     pagecolor="#ffffff"
     bordercolor="#000000"
     borderopacity="0.25"
     inkscape:showpageshadow="2"
     inkscape:pageopacity="0.0"
     inkscape:pagecheckerboard="0"
     inkscape:deskcolor="#d1d1d1"
     showgrid="false"
     inkscape:zoom="1.6640625"
     inkscape:cx="287.84977"
     inkscape:cy="138.8169"
     inkscape:window-width="1918"
     inkscape:window-height="1026"
     inkscape:window-x="0"
     inkscape:window-y="26"
     inkscape:window-maximized="1"
     inkscape:current-layer="svg20" />
  <!--!Font Awesome Free 6.5.2 by @fontawesome - https://fontawesome.com License - https://fontawesome.com/license/free Copyright 2024 Fonticons, Inc.-->
  <path
     d="M 1.7777779,0 C 0.79722229,0 0,0.86884773 0,1.9375002 v 8.7187508 c 0,1.068652 0.79722229,1.9375 1.7777779,1.9375 H 6.6666672 L 6.369445,13.562501 H 4.4444448 c -0.4916667,0 -0.888889,0.43291 -0.888889,0.96875 0,0.53584 0.3972223,0.96875 0.888889,0.96875 h 7.1111112 c 0.491667,0 0.888889,-0.43291 0.888889,-0.96875 0,-0.53584 -0.397222,-0.96875 -0.888889,-0.96875 H 9.6305563 l -0.2972222,-0.96875 h 4.8888889 c 0.980556,0 1.777778,-0.868848 1.777778,-1.9375 V 1.9375002 C 16.000001,0.86884773 15.202779,0 14.222223,0 Z M 14.222223,1.9375002 V 10.656251 H 1.7777779 V 1.9375002 Z"
     id="path18"
     style="fill:#cccccc;stroke-width:1" />
</svg>
