<?xml version="1.0" encoding="UTF-8" standalone="no"?>
<svg
   viewBox="0 0 15.949998 16"
   version="1.1"
   id="svg36"
   sodipodi:docname="hand.svg"
   inkscape:version="1.2.2 (b0a8486541, 2022-12-01)"
   width="15.949998"
   height="16"
   xmlns:inkscape="http://www.inkscape.org/namespaces/inkscape"
   xmlns:sodipodi="http://sodipodi.sourceforge.net/DTD/sodipodi-0.dtd"
   xmlns="http://www.w3.org/2000/svg"
   xmlns:svg="http://www.w3.org/2000/svg">
  <defs
     id="defs40" />
  <sodipodi:namedview
     id="namedview38"
     pagecolor="#ffffff"
     bordercolor="#000000"
     borderopacity="0.25"
     inkscape:showpageshadow="2"
     inkscape:pageopacity="0.0"
     inkscape:pagecheckerboard="0"
     inkscape:deskcolor="#d1d1d1"
     showgrid="false"
     inkscape:zoom="1.6640625"
     inkscape:cx="256"
     inkscape:cy="95.549296"
     inkscape:window-width="1918"
     inkscape:window-height="1026"
     inkscape:window-x="0"
     inkscape:window-y="26"
     inkscape:window-maximized="1"
     inkscape:current-layer="svg36" />
  <!--!Font Awesome Free 6.5.2 by @fontawesome - https://fontawesome.com License - https://fontawesome.com/license/free Copyright 2024 Fonticons, Inc.-->
  <path
     d="M 8.5058916,0 C 7.665106,0 6.9373114,0.459375 6.5916921,1.125 6.3590637,1.04375 6.1098189,1 5.8472811,1 4.6741693,1 3.7203928,1.896875 3.7203928,3 V 8.171875 L 3.6306648,8.0875 c -0.8308157,-0.78125 -2.1767372,-0.78125 -3.00755299,0 -0.83081575,0.78125 -0.83081575,2.046875 0,2.828125 L 3.5376134,13.65625 C 5.1327796,15.15625 7.2962238,16 9.5527194,16 h 0.2824774 0.2658612 c 0.04985,0 0.0997,-0.0031 0.149547,-0.0125 3.047432,-0.19375 5.483384,-2.48125 5.686103,-5.346875 0.01,-0.04687 0.01329,-0.09375 0.01329,-0.140625 V 5 c 0,-1.103125 -0.953777,-2 -2.126889,-2 -0.182779,0 -0.362235,0.021875 -0.531722,0.0625 V 3 c 0,-1.103125 -0.953776,-2 -2.126888,-2 C 10.901961,1 10.652717,1.04375 10.420088,1.125 10.074472,0.459375 9.3466771,0 8.5058916,0 Z M 7.9741695,3.003125 c 0,0 0,-0.00312 0,-0.00312 V 2 c 0,-0.275 0.2392749,-0.5 0.5317221,-0.5 0.2924471,0 0.531722,0.225 0.531722,0.5 v 0.996875 c 0,0 0,0.00312 0,0.00312 V 7.25 C 9.0376136,7.665625 9.3932028,8 9.8351968,8 10.277191,8 10.63278,7.665625 10.63278,7.25 V 3 c 0,0 0,0 0,-0.00312 0,-0.275 0.239275,-0.5 0.531722,-0.5 0.292447,0 0.531722,0.225 0.531722,0.5 v 1.74687 c 0,0 0,0.00312 0,0.00312 v 2.5 c 0,0.415625 0.355589,0.75 0.797583,0.75 0.441994,0 0.797583,-0.334375 0.797583,-0.75 V 5.00312 c 0,0 0,-0.00312 0,-0.00312 0,-0.275 0.239275,-0.5 0.531722,-0.5 0.292448,0 0.531723,0.225 0.531723,0.5 v 5.403125 c -0.0033,0.01875 -0.0033,0.04063 -0.0066,0.05938 -0.112991,2.178125 -1.970695,3.925 -4.287009,4.03125 -0.01994,0 -0.0432,0.0031 -0.06314,0.0062 H 9.8351968 9.5527194 C 7.7182782,14.5 5.9602721,13.815625 4.6641995,12.596875 L 1.7496979,9.853125 c -0.2060423,-0.19375 -0.2060423,-0.5125 0,-0.70625 0.2060423,-0.19375 0.5450151,-0.19375 0.7510574,0 L 3.9530212,10.5125 c 0.2293052,0.215625 0.5716013,0.278125 0.8706949,0.1625 0.2990937,-0.115625 0.491843,-0.390625 0.491843,-0.69375 V 3 c 0,-0.275 0.2392749,-0.5 0.5317221,-0.5 0.2924471,0 0.531722,0.221875 0.531722,0.496875 V 7.25 c 0,0.415625 0.3555892,0.75 0.7975831,0.75 0.441994,0 0.7975832,-0.334375 0.7975832,-0.75 z"
     id="path34"
     style="fill:#cccccc;stroke-width:0.999999" />
</svg>
