<?xml version="1.0" encoding="UTF-8" standalone="no"?>
<svg
   viewBox="0 0 12 16"
   version="1.1"
   id="svg44"
   sodipodi:docname="lightbulb.svg"
   inkscape:version="1.2.2 (b0a8486541, 2022-12-01)"
   width="12"
   height="16"
   xmlns:inkscape="http://www.inkscape.org/namespaces/inkscape"
   xmlns:sodipodi="http://sodipodi.sourceforge.net/DTD/sodipodi-0.dtd"
   xmlns="http://www.w3.org/2000/svg"
   xmlns:svg="http://www.w3.org/2000/svg">
  <defs
     id="defs48" />
  <sodipodi:namedview
     id="namedview46"
     pagecolor="#ffffff"
     bordercolor="#000000"
     borderopacity="0.25"
     inkscape:showpageshadow="2"
     inkscape:pageopacity="0.0"
     inkscape:pagecheckerboard="0"
     inkscape:deskcolor="#d1d1d1"
     showgrid="false"
     inkscape:zoom="1.6640625"
     inkscape:cx="175.47418"
     inkscape:cy="170.66667"
     inkscape:window-width="1918"
     inkscape:window-height="1026"
     inkscape:window-x="0"
     inkscape:window-y="26"
     inkscape:window-maximized="1"
     inkscape:current-layer="svg44" />
  <!--!Font Awesome Free 6.5.2 by @fontawesome - https://fontawesome.com License - https://fontawesome.com/license/free Copyright 2024 Fonticons, Inc.-->
  <path
     d="M 9.586363,7.778125 C 10.077273,7.134375 10.363636,6.35 10.363636,5.5 c 0,-2.209375 -1.953409,-4 -4.363636,-4 -2.410228,0 -4.363637,1.790625 -4.363637,4 0,0.85 0.286364,1.634375 0.777273,2.278125 C 2.539772,7.94375 2.689772,8.13125 2.85,8.33125 v 0 C 3.289772,8.884375 3.814772,9.546875 4.206818,10.2 c 0.354545,0.59375 0.535227,1.2125 0.623864,1.796875 H 3.170454 C 3.095454,11.621875 2.969318,11.25625 2.768181,10.91875 2.430681,10.35625 2.011363,9.828125 1.592045,9.3 v 0 0 C 1.414772,9.078125 1.2375,8.85625 1.067045,8.63125 0.395454,7.746875 0,6.665625 0,5.5 0,2.4625 2.686363,0 6,0 c 3.313636,0 6,2.4625 6,5.5 0,1.165625 -0.395455,2.246875 -1.070455,3.134375 -0.170454,0.225 -0.347727,0.446875 -0.525,0.66875 v 0 0 C 9.985227,9.828125 9.565909,10.35625 9.228409,10.921875 9.027273,11.259375 8.901136,11.625 8.826136,12 H 7.172727 C 7.261367,11.415625 7.442045,10.79375 7.796591,10.203125 8.188636,9.55 8.713636,8.8875 9.153409,8.334375 v 0 0 0 c 0.160227,-0.2 0.306818,-0.3875 0.432954,-0.553125 z M 6,4 C 5.096591,4 4.363636,4.671875 4.363636,5.5 4.363636,5.775 4.118181,6 3.818181,6 3.518181,6 3.272727,5.775 3.272727,5.5 3.272727,4.11875 4.493181,3 6,3 6.3,3 6.545454,3.225 6.545454,3.5 6.545454,3.775 6.3,4 6,4 Z M 6,16 C 4.493181,16 3.272727,14.88125 3.272727,13.5 V 13 h 5.454546 v 0.5 C 8.727273,14.88125 7.506818,16 6,16 Z"
     id="path42"
     style="fill:#cccccc;stroke-width:0.999999" />
</svg>
