<?xml version="1.0" encoding="UTF-8" standalone="no"?>
<svg
   viewBox="0 0 512 512"
   version="1.1"
   id="svg987"
   sodipodi:docname="menu-light-small.svg"
   inkscape:version="1.2.2 (b0a8486541, 2022-12-01)"
   xmlns:inkscape="http://www.inkscape.org/namespaces/inkscape"
   xmlns:sodipodi="http://sodipodi.sourceforge.net/DTD/sodipodi-0.dtd"
   xmlns="http://www.w3.org/2000/svg"
   xmlns:svg="http://www.w3.org/2000/svg">
  <defs
     id="defs991" />
  <sodipodi:namedview
     id="namedview989"
     pagecolor="#ffffff"
     bordercolor="#000000"
     borderopacity="0.25"
     inkscape:showpageshadow="2"
     inkscape:pageopacity="0.0"
     inkscape:pagecheckerboard="0"
     inkscape:deskcolor="#d1d1d1"
     showgrid="false"
     inkscape:zoom="1.609375"
     inkscape:cx="147.57282"
     inkscape:cy="252.27184"
     inkscape:window-width="1423"
     inkscape:window-height="1026"
     inkscape:window-x="0"
     inkscape:window-y="26"
     inkscape:window-maximized="0"
     inkscape:current-layer="svg987" />
  <!--!Font Awesome Free 6.5.1 by @fontawesome - https://fontawesome.com License - https://fontawesome.com/license/free Copyright 2024 Fonticons, Inc.-->
  <path
     d="m 255.9865,229.87592 c -57.962,0 -140.16,92.84926 -140.16,151.44712 0,26.38794 19.564,42.19046 52.341,42.19046 35.624,0 59.203,-18.97815 87.819,-18.97815 28.835,0 52.487,18.97815 87.819,18.97815 32.777,0 52.341,-15.80252 52.341,-42.19046 0,-58.59786 -82.198,-151.44712 -140.16,-151.44712 z m -107.529,-9.52688 c -7.592,-26.23672 -30.952,-43.17339 -52.268,-37.88068 -21.243,5.29271 -32.339,30.77333 -24.747,56.93444 7.592,26.23672 30.952,43.17339 52.268,37.88069 21.243,-5.29272 32.339,-30.77334 24.747,-56.93445 z m 61.831,-15.72691 c 22.557,-6.12442 33.872,-37.72946 25.258,-70.61987 -8.614,-32.89041 -33.945,-54.439306 -56.575,-48.314884 -22.63,6.124422 -33.872,37.729464 -25.258,70.619874 8.614,32.81481 33.945,54.43931 56.575,48.31488 z m 205.422,-22.15377 c -21.243,-5.29271 -44.676,11.71957 -52.268,37.88068 -7.592,26.23672 3.504,51.71734 24.747,56.93445 21.243,5.2927 44.676,-11.71958 52.268,-37.88069 7.592,-26.23672 -3.504,-51.71734 -24.747,-56.93444 z m -114.099,22.15377 c 22.557,6.12443 47.888,-15.50007 56.575,-48.31488 8.614,-32.8148 -2.628,-64.419842 -25.258,-70.619874 -22.63,-6.200032 -47.888,15.500084 -56.575,48.314884 -8.614,32.8148 2.628,64.41984 25.258,70.61987 z"
     id="path985"
     style="fill:#cccccc;stroke-width:0.742936" />
</svg>
