<?xml version="1.0" encoding="UTF-8" standalone="no"?>
<svg
   viewBox="0 0 16 16.000002"
   version="1.1"
   id="svg60"
   sodipodi:docname="options.svg"
   inkscape:version="1.2.2 (b0a8486541, 2022-12-01)"
   width="16"
   height="16.000002"
   xmlns:inkscape="http://www.inkscape.org/namespaces/inkscape"
   xmlns:sodipodi="http://sodipodi.sourceforge.net/DTD/sodipodi-0.dtd"
   xmlns="http://www.w3.org/2000/svg"
   xmlns:svg="http://www.w3.org/2000/svg">
  <defs
     id="defs64" />
  <sodipodi:namedview
     id="namedview62"
     pagecolor="#ffffff"
     bordercolor="#000000"
     borderopacity="0.25"
     inkscape:showpageshadow="2"
     inkscape:pageopacity="0.0"
     inkscape:pagecheckerboard="0"
     inkscape:deskcolor="#d1d1d1"
     showgrid="false"
     inkscape:zoom="1.6640625"
     inkscape:cx="256"
     inkscape:cy="129.80282"
     inkscape:window-width="1918"
     inkscape:window-height="1026"
     inkscape:window-x="0"
     inkscape:window-y="26"
     inkscape:window-maximized="1"
     inkscape:current-layer="svg60" />
  <!--!Font Awesome Free 6.5.2 by @fontawesome - https://fontawesome.com License - https://fontawesome.com/license/free Copyright 2024 Fonticons, Inc.-->
  <path
     d="M 2.4569995,0.156622 C 2.160141,-0.0746226 1.7382893,-0.04649826 1.4695542,0.21912054 L 0.2196234,1.4690913 c -0.26561029,0.2656188 -0.29373374,0.687484 -0.0656214,0.987477 l 2.4998616,3.2499241 c 0.1406172,0.1843706 0.36248,0.2937431 0.5937172,0.2937431 H 4.9381122 L 8.3441736,9.4064059 C 7.884824,10.312635 8.0316909,11.450108 8.7910239,12.20634 l 3.4998061,3.499919 c 0.390604,0.390616 1.024943,0.390616 1.415547,0 l 1.999889,-1.999954 c 0.390603,-0.390616 0.390603,-1.024976 0,-1.415592 L 12.20646,8.7907953 C 11.450252,8.034563 10.312815,7.8845665 9.4066148,8.3439307 L 6.0005534,4.9377603 V 3.2502997 c 0,-0.2343695 -0.109369,-0.4531144 -0.2937338,-0.5937361 z M 0.62272608,12.378211 c -0.39685303,0.396866 -0.6218405652,0.937478 -0.6218405652,1.499965 0,1.171848 0.9499474052,2.121826 2.1217574852,2.121826 0.5624689,0 1.103064,-0.224995 1.499917,-0.621861 L 7.3036062,11.696977 C 7.0598697,11.043868 7.0223718,10.334509 7.1911124,9.6626499 L 5.2630942,7.73457 Z M 16,4.5002705 C 16,4.1721532 15.96563,3.8534106 15.90001,3.5471678 15.82501,3.197176 15.396913,3.1065531 15.143802,3.3596722 l -1.996764,1.9968283 c -0.09375,0.093748 -0.221863,0.1468716 -0.353106,0.1468716 h -1.79365 c -0.274985,0 -0.499973,-0.2249947 -0.499973,-0.4999883 v -1.796833 c 0,-0.131247 0.05312,-0.259369 0.146867,-0.3531168 l 1.99676,-1.99682835 C 12.897047,0.60348656 12.806427,0.17537156 12.456446,0.10037331 12.147088,0.03474985 11.828356,3.7565313e-4 11.500249,3.7565313e-4 9.0160114,3.7565313e-4 7.000498,2.0159536 7.000498,4.5002705 v 0.024999 l 2.6654774,2.6655628 c 1.1249376,-0.2843684 2.3686186,0.015625 3.2498206,0.896854 l 0.490597,0.4906136 C 14.937559,7.8595671 16,6.3033534 16,4.5002705 Z M 1.7507886,13.50006 a 0.7499585,0.74998251 0 1 1 1.499917,0 0.7499585,0.74998251 0 1 1 -1.499917,0 z"
     id="path58"
     style="fill:#cccccc;stroke-width:1" />
</svg>
