<?xml version="1.0" encoding="UTF-8" standalone="no"?>
<svg
   viewBox="0 0 16.00005 16"
   version="1.1"
   id="svg52"
   sodipodi:docname="theme.svg"
   inkscape:version="1.2.2 (b0a8486541, 2022-12-01)"
   width="16.00005"
   height="16"
   xmlns:inkscape="http://www.inkscape.org/namespaces/inkscape"
   xmlns:sodipodi="http://sodipodi.sourceforge.net/DTD/sodipodi-0.dtd"
   xmlns="http://www.w3.org/2000/svg"
   xmlns:svg="http://www.w3.org/2000/svg">
  <defs
     id="defs56" />
  <sodipodi:namedview
     id="namedview54"
     pagecolor="#ffffff"
     bordercolor="#000000"
     borderopacity="0.25"
     inkscape:showpageshadow="2"
     inkscape:pageopacity="0.0"
     inkscape:pagecheckerboard="0"
     inkscape:deskcolor="#d1d1d1"
     showgrid="false"
     inkscape:zoom="1.6640625"
     inkscape:cx="256"
     inkscape:cy="163.4554"
     inkscape:window-width="1918"
     inkscape:window-height="1026"
     inkscape:window-x="0"
     inkscape:window-y="26"
     inkscape:window-maximized="1"
     inkscape:current-layer="svg52" />
  <!--!Font Awesome Free 6.5.2 by @fontawesome - https://fontawesome.com License - https://fontawesome.com/license/free Copyright 2024 Fonticons, Inc.-->
  <path
     d="m 16.00005,8.00022 c 0,0.0281 0,0.0563 0,0.0844 -0.0125,1.14063 -1.05,1.91563 -2.19063,1.91563 h -3.05937 c -0.82813,0 -1.5,0.67187 -1.5,1.5 0,0.10625 0.0125,0.20937 0.0312,0.30937 0.0656,0.31875 0.20312,0.625 0.3375,0.93438 0.19062,0.43125 0.37812,0.85937 0.37812,1.3125 0,0.99375 -0.675,1.89687 -1.66875,1.9375 C 8.21875,15.997 8.10937,16 7.99687,16 3.58125,16 0,12.41875 0,8 0,3.58125 3.58125,0 8,0 c 4.41875,0 8,3.58125 8,8 z m -12,1 a 1,1 0 1 0 -2,0 1,1 0 1 0 2,0 z m 0,-3 a 1,1 0 1 0 0,-2 1,1 0 1 0 0,2 z m 5,-3 a 1,1 0 1 0 -2,0 1,1 0 1 0 2,0 z m 3,3 a 1,1 0 1 0 0,-2 1,1 0 1 0 0,2 z"
     id="path50"
     style="fill:#cccccc;stroke-width:0.0312501" />
</svg>
