<?xml version="1.0" encoding="UTF-8" standalone="no"?>
<svg
   viewBox="0 0 16.000002 10.000001"
   version="1.1"
   id="svg470"
   sodipodi:docname="toggle-off-solid.svg"
   inkscape:version="1.2.2 (b0a8486541, 2022-12-01)"
   width="16.000002"
   height="10.000001"
   xmlns:inkscape="http://www.inkscape.org/namespaces/inkscape"
   xmlns:sodipodi="http://sodipodi.sourceforge.net/DTD/sodipodi-0.dtd"
   xmlns="http://www.w3.org/2000/svg"
   xmlns:svg="http://www.w3.org/2000/svg">
  <defs
     id="defs474" />
  <sodipodi:namedview
     id="namedview472"
     pagecolor="#ffffff"
     bordercolor="#000000"
     borderopacity="0.25"
     inkscape:showpageshadow="2"
     inkscape:pageopacity="0.0"
     inkscape:pagecheckerboard="0"
     inkscape:deskcolor="#d1d1d1"
     showgrid="false"
     inkscape:zoom="1.6640625"
     inkscape:cx="287.84977"
     inkscape:cy="191.69953"
     inkscape:window-width="1918"
     inkscape:window-height="1026"
     inkscape:window-x="0"
     inkscape:window-y="26"
     inkscape:window-maximized="1"
     inkscape:current-layer="svg470" />
  <!--!Font Awesome Free 6.5.2 by @fontawesome - https://fontawesome.com License - https://fontawesome.com/license/free Copyright 2024 Fonticons, Inc.-->
  <path
     d="m 10.666668,1.666667 c 1.963889,0 3.555555,1.492187 3.555555,3.333334 0,1.841146 -1.591666,3.333333 -3.555555,3.333333 H 5.3333338 c -1.9638891,0 -3.5555559,-1.492187 -3.5555559,-3.333333 0,-1.841147 1.5916668,-3.333334 3.5555559,-3.333334 z m 5.333333,3.333334 C 16.000001,2.239584 13.611112,0 10.666668,0 H 5.3333338 C 2.3888891,0 0,2.239584 0,5.000001 c 0,2.760417 2.3888891,5 5.3333338,5 h 5.3333342 c 2.944444,0 5.333333,-2.239583 5.333333,-5 z m -10.6666672,2.5 a 2.6666671,2.5000005 0 1 0 0,-5.000001 2.6666671,2.5000005 0 1 0 0,5.000001 z"
     id="path468"
     style="fill:#cccccc;stroke-width:1" />
</svg>
