<?xml version="1.0" encoding="UTF-8" standalone="no"?>
<svg
   viewBox="0 0 512 512"
   version="1.1"
   id="svg478"
   sodipodi:docname="toolbox-solid.svg"
   inkscape:version="1.2.2 (b0a8486541, 2022-12-01)"
   xmlns:inkscape="http://www.inkscape.org/namespaces/inkscape"
   xmlns:sodipodi="http://sodipodi.sourceforge.net/DTD/sodipodi-0.dtd"
   xmlns="http://www.w3.org/2000/svg"
   xmlns:svg="http://www.w3.org/2000/svg">
  <defs
     id="defs482" />
  <sodipodi:namedview
     id="namedview480"
     pagecolor="#ffffff"
     bordercolor="#000000"
     borderopacity="0.25"
     inkscape:showpageshadow="2"
     inkscape:pageopacity="0.0"
     inkscape:pagecheckerboard="0"
     inkscape:deskcolor="#d1d1d1"
     showgrid="false"
     inkscape:zoom="1.6640625"
     inkscape:cx="256"
     inkscape:cy="256"
     inkscape:window-width="1918"
     inkscape:window-height="1026"
     inkscape:window-x="0"
     inkscape:window-y="26"
     inkscape:window-maximized="1"
     inkscape:current-layer="svg478" />
  <!--!Font Awesome Free 6.5.2 by @fontawesome - https://fontawesome.com License - https://fontawesome.com/license/free Copyright 2024 Fonticons, Inc.-->
  <path
     d="M176 88l0 40 160 0 0-40c0-4.4-3.6-8-8-8L184 80c-4.4 0-8 3.6-8 8zm-48 40l0-40c0-30.9 25.1-56 56-56l144 0c30.9 0 56 25.1 56 56l0 40 28.1 0c12.7 0 24.9 5.1 33.9 14.1l51.9 51.9c9 9 14.1 21.2 14.1 33.9l0 92.1-128 0 0-32c0-17.7-14.3-32-32-32s-32 14.3-32 32l0 32-128 0 0-32c0-17.7-14.3-32-32-32s-32 14.3-32 32l0 32L0 320l0-92.1c0-12.7 5.1-24.9 14.1-33.9l51.9-51.9c9-9 21.2-14.1 33.9-14.1l28.1 0zM0 416l0-64 128 0c0 17.7 14.3 32 32 32s32-14.3 32-32l128 0c0 17.7 14.3 32 32 32s32-14.3 32-32l128 0 0 64c0 35.3-28.7 64-64 64L64 480c-35.3 0-64-28.7-64-64z"
     id="path476"
     style="fill:#cccccc" />
</svg>
