<?xml version="1.0" encoding="UTF-8" standalone="no"?>
<svg
   viewBox="0 0 16.000002 15.999997"
   version="1.1"
   id="svg84"
   sodipodi:docname="toolbox.svg"
   inkscape:version="1.2.2 (b0a8486541, 2022-12-01)"
   width="16.000002"
   height="15.999997"
   xmlns:inkscape="http://www.inkscape.org/namespaces/inkscape"
   xmlns:sodipodi="http://sodipodi.sourceforge.net/DTD/sodipodi-0.dtd"
   xmlns="http://www.w3.org/2000/svg"
   xmlns:svg="http://www.w3.org/2000/svg">
  <defs
     id="defs88" />
  <sodipodi:namedview
     id="namedview86"
     pagecolor="#ffffff"
     bordercolor="#000000"
     borderopacity="0.25"
     inkscape:showpageshadow="2"
     inkscape:pageopacity="0.0"
     inkscape:pagecheckerboard="0"
     inkscape:deskcolor="#d1d1d1"
     showgrid="false"
     inkscape:zoom="1.6640625"
     inkscape:cx="256"
     inkscape:cy="224.15023"
     inkscape:window-width="1918"
     inkscape:window-height="1026"
     inkscape:window-x="0"
     inkscape:window-y="26"
     inkscape:window-maximized="1"
     inkscape:current-layer="svg84" />
  <!--!Font Awesome Free 6.5.2 by @fontawesome - https://fontawesome.com License - https://fontawesome.com/license/free Copyright 2024 Fonticons, Inc.-->
  <path
     d="M 5.5000017,1.999999 V 3.42857 H 10.500001 V 1.999999 c 0,-0.157142 -0.112499,-0.285714 -0.249999,-0.285714 H 5.7500007 c -0.1375007,0 -0.249999,0.128572 -0.249999,0.285714 z M 4.0000015,3.42857 V 1.999999 C 4.0000015,0.896428 4.7843755,0 5.7500007,0 h 4.5000013 c 0.965624,0 1.750001,0.896428 1.750001,1.999999 V 3.42857 h 0.878124 c 0.396876,0 0.778126,0.182143 1.059376,0.503572 l 1.621875,1.853571 c 0.281249,0.321429 0.440624,0.757144 0.440624,1.210715 v 3.289285 H 12.000003 V 9.142855 c 0,-0.632142 -0.446876,-1.142856 -1.000001,-1.142856 -0.553125,0 -1.000001,0.510714 -1.000001,1.142856 v 1.142858 H 6.0000012 V 9.142855 c 0,-0.632142 -0.4468755,-1.142856 -0.9999999,-1.142856 -0.5531262,0 -0.9999998,0.510714 -0.9999998,1.142856 v 1.142858 H 0 V 6.996428 C 0,6.542857 0.15937503,6.107142 0.44062505,5.785713 L 2.0625004,3.932142 C 2.3437504,3.610713 2.7250004,3.42857 3.1218759,3.42857 Z M 0,13.714284 v -2.285715 h 4.0000015 c 0,0.632143 0.4468736,1.142858 0.9999998,1.142858 0.5531244,0 0.9999999,-0.510715 0.9999999,-1.142858 h 3.9999998 c 0,0.632143 0.446876,1.142858 1.000001,1.142858 0.553125,0 1.000001,-0.510715 1.000001,-1.142858 h 3.999999 v 2.285715 c 0,1.260715 -0.896874,2.285713 -2,2.285713 H 2.0000004 C 0.89687518,15.999997 0,14.974999 0,13.714284 Z"
     id="path82"
     style="fill:#cccccc;stroke-width:1" />
</svg>
