<?xml version="1.0" encoding="UTF-8" standalone="no"?>
<svg
   viewBox="0 0 512 512"
   version="1.1"
   id="svg36"
   sodipodi:docname="maximized_focus-active.svg"
   inkscape:version="1.2.2 (b0a8486541, 2022-12-01)"
   xmlns:inkscape="http://www.inkscape.org/namespaces/inkscape"
   xmlns:sodipodi="http://sodipodi.sourceforge.net/DTD/sodipodi-0.dtd"
   xmlns="http://www.w3.org/2000/svg"
   xmlns:svg="http://www.w3.org/2000/svg">
  <defs
     id="defs40" />
  <sodipodi:namedview
     id="namedview38"
     pagecolor="#ffffff"
     bordercolor="#000000"
     borderopacity="0.25"
     inkscape:showpageshadow="2"
     inkscape:pageopacity="0.0"
     inkscape:pagecheckerboard="0"
     inkscape:deskcolor="#d1d1d1"
     showgrid="false"
     inkscape:zoom="12.329125"
     inkscape:cx="395.08076"
     inkscape:cy="84.028673"
     inkscape:window-width="1918"
     inkscape:window-height="1028"
     inkscape:window-x="0"
     inkscape:window-y="26"
     inkscape:window-maximized="1"
     inkscape:current-layer="svg36" />
  <!--!Font Awesome Free 6.5.2 by @fontawesome - https://fontawesome.com License - https://fontawesome.com/license/free Copyright 2024 Fonticons, Inc.-->
  <path
     d="m 406.0125,232 h -108 c -9.975,0 -18,-8.025 -18,-18 V 106 c 0,-7.275 4.35,-13.875 11.1,-16.65 6.75,-2.775 14.475,-1.275 19.65,3.9 l 30,30 54.975,-54.975 c 2.775,-2.775 6.45,-4.275 10.275,-4.275 3.825,0 7.5,1.5 10.275,4.275 l 27.525,27.525 c 2.7,2.7 4.2,6.375 4.2,10.2 0,3.825 -1.5,7.5 -4.275,10.275 l -54.975,54.975 30,30 c 5.175,5.175 6.675,12.9 3.9,19.65 -2.775,6.75 -9.375,11.1 -16.65,11.1 z m 0,48 c 7.275,0 13.875,4.35 16.65,11.1 2.775,6.75 1.275,14.475 -3.9,19.65 l -30,30 55.05,55.05 c 2.7,2.7 4.275,6.375 4.275,10.275 0,3.9 -1.5,7.5 -4.275,10.275 l -27.525,27.525 c -2.775,2.625 -6.45,4.125 -10.275,4.125 -3.825,0 -7.5,-1.5 -10.275,-4.275 l -54.975,-54.975 -30,30 c -5.175,5.175 -12.9,6.675 -19.65,3.9 -6.75,-2.775 -11.1,-9.375 -11.1,-16.65 V 298 c 0,-9.975 8.025,-18 18,-18 z m -192,0 c 9.975,0 18,8.025 18,18 v 108 c 0,7.275 -4.35,13.875 -11.1,16.65 -6.75,2.775 -14.475,1.275 -19.65,-3.9 l -30,-30 -54.975,54.975 c -2.775,2.775 -6.45,4.275 -10.275,4.275 -3.825,0 -7.5,-1.5 -10.275,-4.275 l -27.45,-27.45 c -2.775,-2.775 -4.275,-6.45 -4.275,-10.275 0,-3.825 1.5,-7.5 4.275,-10.275 l 54.975,-54.975 -30,-30 c -5.175,-5.175 -6.675,-12.9 -3.9,-19.65 2.775,-6.75 9.375,-11.1 16.65,-11.1 z m -108,-48 c -7.275,0 -13.875,-4.35 -16.65,-11.1 -2.775,-6.75 -1.275,-14.475 3.9,-19.65 l 30,-30 -54.975,-54.975 c -2.775,-2.775 -4.275,-6.45 -4.275,-10.275 0,-3.825 1.5,-7.5 4.275,-10.275 l 27.45,-27.45 c 2.775,-2.775 6.45,-4.275 10.275,-4.275 3.825,0 7.5,1.5 10.275,4.275 l 54.975,54.975 30,-30 c 5.175,-5.175 12.9,-6.675 19.65,-3.9 6.75,2.775 11.1,9.375 11.1,16.65 v 108 c 0,9.975 -8.025,18 -18,18 z"
     id="path34"
     style="fill:#e6e6e6;stroke-width:0.75" />
</svg>
