<?xml version="1.0" encoding="UTF-8" standalone="no"?>
<svg
   viewBox="0 0 576 512"
   version="1.1"
   id="svg52"
   sodipodi:docname="ontop_focus_active.svg"
   inkscape:version="1.2.2 (b0a8486541, 2022-12-01)"
   xmlns:inkscape="http://www.inkscape.org/namespaces/inkscape"
   xmlns:sodipodi="http://sodipodi.sourceforge.net/DTD/sodipodi-0.dtd"
   xmlns="http://www.w3.org/2000/svg"
   xmlns:svg="http://www.w3.org/2000/svg">
  <defs
     id="defs56" />
  <sodipodi:namedview
     id="namedview54"
     pagecolor="#ffffff"
     bordercolor="#000000"
     borderopacity="0.25"
     inkscape:showpageshadow="2"
     inkscape:pageopacity="0.0"
     inkscape:pagecheckerboard="0"
     inkscape:deskcolor="#d1d1d1"
     showgrid="false"
     inkscape:zoom="1.6523438"
     inkscape:cx="176.11347"
     inkscape:cy="255.99999"
     inkscape:window-width="1918"
     inkscape:window-height="1028"
     inkscape:window-x="0"
     inkscape:window-y="26"
     inkscape:window-maximized="1"
     inkscape:current-layer="svg52" />
  <!--!Font Awesome Free 6.5.2 by @fontawesome - https://fontawesome.com License - https://fontawesome.com/license/free Copyright 2024 Fonticons, Inc.-->
  <path
     d="M 96,153.55 C 81.675,145.3 72,129.775 72,112 72,85.525 93.525,64 120,64 c 17.775,0 33.3,9.675 41.55,24 h 252.9 C 422.7,73.675 438.225,64 456,64 c 26.475,0 48,21.525 48,48 0,17.775 -9.675,33.3 -24,41.55 v 204.9 c 14.325,8.325 24,23.775 24,41.55 0,26.475 -21.525,48 -48,48 -17.775,0 -33.3,-9.675 -41.55,-24 h -252.9 c -8.325,14.325 -23.775,24 -41.55,24 -26.475,0 -48,-21.525 -48,-48 0,-17.775 9.675,-33.3 24,-41.55 z M 414.45,136 h -252.9 c -4.2,7.275 -10.275,13.35 -17.55,17.55 v 204.9 c 7.275,4.2 13.35,10.275 17.55,17.55 h 252.9 c 4.2,-7.275 10.275,-13.35 17.55,-17.55 V 153.55 C 424.725,149.35 418.65,143.275 414.45,136 Z M 168,184 c 0,-13.275 10.725,-24 24,-24 h 96 c 13.275,0 24,10.725 24,24 v 72 c 0,13.275 -10.725,24 -24,24 h -96 c -13.275,0 -24,-10.725 -24,-24 z m 96,120 h 24 c 26.475,0 48,-21.525 48,-48 v -24 h 48 c 13.275,0 24,10.725 24,24 v 72 c 0,13.275 -10.725,24 -24,24 h -96 c -13.275,0 -24,-10.725 -24,-24 z"
     id="path50"
     style="fill:#e6e6e6;stroke-width:0.75" />
</svg>
