<?xml version="1.0" encoding="UTF-8" standalone="no"?>
<svg
   viewBox="0 0 512 512"
   version="1.1"
   id="svg20"
   sodipodi:docname="circle-up-solid.svg"
   inkscape:version="1.2.2 (b0a8486541, 2022-12-01)"
   xmlns:inkscape="http://www.inkscape.org/namespaces/inkscape"
   xmlns:sodipodi="http://sodipodi.sourceforge.net/DTD/sodipodi-0.dtd"
   xmlns="http://www.w3.org/2000/svg"
   xmlns:svg="http://www.w3.org/2000/svg">
  <defs
     id="defs24" />
  <sodipodi:namedview
     id="namedview22"
     pagecolor="#ffffff"
     bordercolor="#000000"
     borderopacity="0.25"
     inkscape:showpageshadow="2"
     inkscape:pageopacity="0.0"
     inkscape:pagecheckerboard="0"
     inkscape:deskcolor="#d1d1d1"
     showgrid="false"
     inkscape:zoom="1.6523438"
     inkscape:cx="256"
     inkscape:cy="256"
     inkscape:window-width="1918"
     inkscape:window-height="1028"
     inkscape:window-x="0"
     inkscape:window-y="26"
     inkscape:window-maximized="1"
     inkscape:current-layer="svg20" />
  <!--!Font Awesome Free 6.5.2 by @fontawesome - https://fontawesome.com License - https://fontawesome.com/license/free Copyright 2024 Fonticons, Inc.-->
  <path
     d="m 256,448 a 192,192 0 1 0 0,-384 192,192 0 1 0 0,384 z M 165.325,227.05 245.65,152.125 C 248.5,149.5 252.175,148 256,148 c 3.825,0 7.575,1.5 10.35,4.125 l 80.325,74.925 C 350.05,230.2 352,234.625 352,239.275 352,248.5 344.5,256 335.275,256 H 292 v 72 c 0,13.275 -10.725,24 -24,24 h -24 c -13.275,0 -24,-10.725 -24,-24 V 256 H 176.725 C 167.5,256 160,248.5 160,239.275 c 0,-4.65 1.95,-9.075 5.325,-12.225 z"
     id="path18"
     style="fill:#e6e6e6;stroke-width:0.75" />
</svg>
