<?xml version="1.0" encoding="UTF-8" standalone="no"?>
<svg
   viewBox="0 0 512 512"
   version="1.1"
   id="svg378"
   sodipodi:docname="circle-arrow-up-solid.svg"
   inkscape:version="1.2.2 (b0a8486541, 2022-12-01)"
   xmlns:inkscape="http://www.inkscape.org/namespaces/inkscape"
   xmlns:sodipodi="http://sodipodi.sourceforge.net/DTD/sodipodi-0.dtd"
   xmlns="http://www.w3.org/2000/svg"
   xmlns:svg="http://www.w3.org/2000/svg">
  <defs
     id="defs382" />
  <sodipodi:namedview
     id="namedview380"
     pagecolor="#ffffff"
     bordercolor="#000000"
     borderopacity="0.25"
     inkscape:showpageshadow="2"
     inkscape:pageopacity="0.0"
     inkscape:pagecheckerboard="0"
     inkscape:deskcolor="#d1d1d1"
     showgrid="false"
     inkscape:zoom="1.6523438"
     inkscape:cx="256"
     inkscape:cy="256"
     inkscape:window-width="1918"
     inkscape:window-height="1028"
     inkscape:window-x="0"
     inkscape:window-y="26"
     inkscape:window-maximized="1"
     inkscape:current-layer="svg378" />
  <!--!Font Awesome Free 6.5.2 by @fontawesome - https://fontawesome.com License - https://fontawesome.com/license/free Copyright 2024 Fonticons, Inc.-->
  <path
     d="m 256,448 a 192,192 0 1 0 0,-384 192,192 0 1 0 0,384 z m 96.75,-210.75 c 7.05,7.05 7.05,18.45 0,25.425 -7.05,6.975 -18.45,7.05 -25.425,0 l -53.25,-53.25 V 346 c 0,9.975 -8.025,18 -18,18 -9.975,0 -18,-8.025 -18,-18 V 209.425 l -53.25,53.25 c -7.05,7.05 -18.45,7.05 -25.425,0 -6.975,-7.05 -7.05,-18.45 0,-25.425 l 83.85,-84 c 7.05,-7.05 18.45,-7.05 25.425,0 z"
     id="path376"
     style="fill:#e6e6e6;stroke-width:0.75" />
</svg>
