<?xml version="1.0" encoding="UTF-8" standalone="no"?>
<svg
   viewBox="0 0 512 512"
   version="1.1"
   id="svg52"
   sodipodi:docname="feather-pointed-solid.svg"
   inkscape:version="1.2.2 (b0a8486541, 2022-12-01)"
   xmlns:inkscape="http://www.inkscape.org/namespaces/inkscape"
   xmlns:sodipodi="http://sodipodi.sourceforge.net/DTD/sodipodi-0.dtd"
   xmlns="http://www.w3.org/2000/svg"
   xmlns:svg="http://www.w3.org/2000/svg">
  <defs
     id="defs56" />
  <sodipodi:namedview
     id="namedview54"
     pagecolor="#ffffff"
     bordercolor="#000000"
     borderopacity="0.25"
     inkscape:showpageshadow="2"
     inkscape:pageopacity="0.0"
     inkscape:pagecheckerboard="0"
     inkscape:deskcolor="#d1d1d1"
     showgrid="false"
     inkscape:zoom="1.6523438"
     inkscape:cx="256"
     inkscape:cy="256"
     inkscape:window-width="1918"
     inkscape:window-height="1028"
     inkscape:window-x="0"
     inkscape:window-y="26"
     inkscape:window-maximized="1"
     inkscape:current-layer="svg52" />
  <!--!Font Awesome Free 6.5.2 by @fontawesome - https://fontawesome.com License - https://fontawesome.com/license/free Copyright 2024 Fonticons, Inc.-->
  <path
     d="m 274.86941,225.70091 -191.624999,191.55 c -7.05,7.05 -7.05,18.45 0,25.425 7.05,6.975 18.449999,7.05 25.424999,0 l 56.1,-56.1 c 5.55,3.45 11.475,6.15 17.85,7.875 33.6,9.15 85.875,10.425 136.875,-23.4 9.15,-6.075 4.35,-19.05 -6.6,-19.05 h -12.075 c -3.825,0 -6.9,-3.075 -6.9,-6.9 0,-3.075 2.025,-5.7 4.875,-6.6 l 73.275,-21.975 c 2.55,-0.75 4.8,-2.325 6.3,-4.575 3.3,-4.8 6.45,-9.675 9.45,-14.7 4.65,-7.725 -1.125,-17.25 -10.125,-17.25 h -28.95 c -3.825,0 -6.9,-3.075 -6.9,-6.9 0,-3.075 2.025,-5.7 4.875,-6.6 l 60.675,-18.225 c 3.45,-1.05 6.3,-3.6 7.65,-6.975 21.825,-55.05 31.8,-112.725 34.875,-149.700002 0.6,-7.425 -2.25,-14.7 -7.5,-19.95 -5.25,-5.25 -12.525,-8.1 -19.95,-7.5 -62.85,5.1 -185.1,30.225 -253.425,98.550002 -60.075,60.075 -60.525,128.025 -49.575,168.6 1.575,5.925 9,7.2 13.35,2.85 l 123.375,-123.3 c 4.65,-4.65 12.3,-4.65 16.95,0 4.05,4.05 4.575,10.2 1.65,14.85 z"
     id="path50"
     style="fill:#e6e6e6;stroke-width:0.75" />
</svg>
