<?xml version="1.0" encoding="UTF-8" standalone="no"?>
<svg
   viewBox="0 0 576 512"
   version="1.1"
   id="svg60"
   sodipodi:docname="ferry-solid.svg"
   inkscape:version="1.2.2 (b0a8486541, 2022-12-01)"
   xmlns:inkscape="http://www.inkscape.org/namespaces/inkscape"
   xmlns:sodipodi="http://sodipodi.sourceforge.net/DTD/sodipodi-0.dtd"
   xmlns="http://www.w3.org/2000/svg"
   xmlns:svg="http://www.w3.org/2000/svg">
  <defs
     id="defs64" />
  <sodipodi:namedview
     id="namedview62"
     pagecolor="#ffffff"
     bordercolor="#000000"
     borderopacity="0.25"
     inkscape:showpageshadow="2"
     inkscape:pageopacity="0.0"
     inkscape:pagecheckerboard="0"
     inkscape:deskcolor="#d1d1d1"
     showgrid="false"
     inkscape:zoom="1.6523438"
     inkscape:cx="288.07565"
     inkscape:cy="256"
     inkscape:window-width="1918"
     inkscape:window-height="1028"
     inkscape:window-x="0"
     inkscape:window-y="26"
     inkscape:window-maximized="1"
     inkscape:current-layer="svg60" />
  <!--!Font Awesome Free 6.5.2 by @fontawesome - https://fontawesome.com License - https://fontawesome.com/license/free Copyright 2024 Fonticons, Inc.-->
  <path
     d="m 240,64.004781 h 96 c 13.275,0 24,10.725 24,24 h 56.325 c 15.45,0 23.7,18.224999 13.575,29.849999 l -15.9,18.15 H 162 l -15.9,-18.15 c -10.125,-11.625 -1.875,-29.849999 13.575,-29.849999 H 216 c 0,-13.275 10.725,-24 24,-24 z m -96,95.999999 h 288 c 13.275,0 24,10.725 24,24 v 92.625 c 0,9.975 -3.15,19.725 -8.925,27.9 l -38.55,53.925 c -1.425,0.825 -2.775,1.65 -4.125,2.625 -11.625,8.025 -25.5,13.5 -38.25,14.925 H 353.7 c -12.825,-1.35 -26.25,-6.75 -38.1,-14.925 -16.575,-11.625 -38.7,-11.625 -55.275,0 -11.1,7.65 -24.375,13.5 -37.95,14.925 h -12.45 c -12.75,-1.35 -26.7,-6.9 -38.25,-14.925 -1.35,-0.975 -2.775,-1.8 -4.2,-2.625 l -38.55,-53.925 c -5.775,-8.175 -8.925,-17.925 -8.925,-27.9 v -92.625 c 0,-13.275 10.725,-24 24,-24 z m 24,48 v 72 h 240 v -72 z m 133.875,172.425 c 16.875,11.625 37.5,19.575 58.125,19.575 20.175,0 41.475,-8.1 58.05,-19.575 v 0 c 8.925,-6.375 21.075,-5.85 29.4,1.275 10.8,8.925 24.375,15.75 37.95,18.9 12.9,3 20.925,15.9 17.925,28.8 -3,12.9 -15.9,20.925 -28.8,17.925 -18.375,-4.275 -33.675,-12.375 -43.65,-18.75 -21.75,11.7 -46.125,19.425 -70.875,19.425 -23.925,0 -45.45,-7.425 -60.3,-14.175 -4.35,-2.025 -8.325,-3.975 -11.7,-5.775 -3.375,1.8 -7.275,3.825 -11.7,5.775 -14.85,6.75 -36.375,14.175 -60.3,14.175 -24.75,0 -49.125,-7.725 -70.875,-19.35 -10.05,6.3 -25.275,14.475 -43.65,18.75 -12.9,3 -25.8,-5.025 -28.8,-17.925 -3,-12.9 5.025,-25.8 17.925,-28.8 13.575,-3.15 27.15,-9.975 37.95,-18.9 8.325,-7.05 20.475,-7.575 29.4,-1.275 v 0 c 16.575,11.4 37.875,19.5 58.05,19.5 20.625,0 41.25,-7.95 58.125,-19.575 8.325,-5.925 19.425,-5.925 27.75,0 z"
     id="path58"
     style="fill:#e6e6e6;stroke-width:0.75" />
</svg>
