<?xml version="1.0" encoding="UTF-8" standalone="no"?>
<svg
   viewBox="0 0 448 512"
   version="1.1"
   id="svg68"
   sodipodi:docname="fire-solid.svg"
   inkscape:version="1.2.2 (b0a8486541, 2022-12-01)"
   xmlns:inkscape="http://www.inkscape.org/namespaces/inkscape"
   xmlns:sodipodi="http://sodipodi.sourceforge.net/DTD/sodipodi-0.dtd"
   xmlns="http://www.w3.org/2000/svg"
   xmlns:svg="http://www.w3.org/2000/svg">
  <defs
     id="defs72" />
  <sodipodi:namedview
     id="namedview70"
     pagecolor="#ffffff"
     bordercolor="#000000"
     borderopacity="0.25"
     inkscape:showpageshadow="2"
     inkscape:pageopacity="0.0"
     inkscape:pagecheckerboard="0"
     inkscape:deskcolor="#d1d1d1"
     showgrid="false"
     inkscape:zoom="1.6523438"
     inkscape:cx="223.92435"
     inkscape:cy="256"
     inkscape:window-width="1918"
     inkscape:window-height="1028"
     inkscape:window-x="0"
     inkscape:window-y="26"
     inkscape:window-maximized="1"
     inkscape:current-layer="svg68" />
  <!--!Font Awesome Free 6.5.2 by @fontawesome - https://fontawesome.com License - https://fontawesome.com/license/free Copyright 2024 Fonticons, Inc.-->
  <path
     d="m 175.475,68.046843 c 5.85,-5.475 14.925,-5.4 20.775,0.075 20.7,19.425 40.125,40.349997 58.275,62.999997 8.25,-10.8 17.625,-22.575 27.75,-32.174997 5.925,-5.55 15.075,-5.55 21,0.075 25.95,24.749997 47.925,57.449997 63.375,88.499997 15.225,30.6 25.35,61.875 25.35,83.925 0,95.7 -74.85,176.55 -168,176.55 -94.2,0 -168,-80.925 -168,-176.625 0,-28.8 13.35,-63.975 34.05,-98.775 20.925,-35.325 50.475,-72.15 85.425,-104.549997 z m 49.8,307.949997 c 18.975,0 35.775,-5.25 51.6,-15.75 31.575,-22.05 40.05,-66.15 21.075,-100.8 -3.375,-6.75 -12,-7.2 -16.875,-1.5 l -18.9,21.975 c -4.95,5.7 -13.875,5.55 -18.525,-0.375 -12.375,-15.75 -34.5,-43.875 -47.1,-59.85 -4.725,-6 -13.725,-6.075 -18.525,-0.075 -25.35,31.875 -38.1,51.975 -38.1,74.55 0.075,51.375 38.025,81.825 85.35,81.825 z"
     id="path66"
     style="fill:#e6e6e6;stroke-width:0.75" />
</svg>
