<?xml version="1.0" encoding="UTF-8" standalone="no"?>
<svg
   viewBox="0 0 512 512"
   version="1.1"
   id="svg76"
   sodipodi:docname="hand-regular.svg"
   inkscape:version="1.2.2 (b0a8486541, 2022-12-01)"
   xmlns:inkscape="http://www.inkscape.org/namespaces/inkscape"
   xmlns:sodipodi="http://sodipodi.sourceforge.net/DTD/sodipodi-0.dtd"
   xmlns="http://www.w3.org/2000/svg"
   xmlns:svg="http://www.w3.org/2000/svg">
  <defs
     id="defs80" />
  <sodipodi:namedview
     id="namedview78"
     pagecolor="#ffffff"
     bordercolor="#000000"
     borderopacity="0.25"
     inkscape:showpageshadow="2"
     inkscape:pageopacity="0.0"
     inkscape:pagecheckerboard="0"
     inkscape:deskcolor="#d1d1d1"
     showgrid="false"
     inkscape:zoom="1.6523438"
     inkscape:cx="256"
     inkscape:cy="256"
     inkscape:window-width="1918"
     inkscape:window-height="1028"
     inkscape:window-x="0"
     inkscape:window-y="26"
     inkscape:window-maximized="1"
     inkscape:current-layer="svg76" />
  <!--!Font Awesome Free 6.5.2 by @fontawesome - https://fontawesome.com License - https://fontawesome.com/license/free Copyright 2024 Fonticons, Inc.-->
  <path
     d="m 252.00625,64 c -18.975,0 -35.4,11.025 -43.2,27 -5.25,-1.95 -10.875,-3 -16.8,-3 -26.475,0 -48,21.525 -48,48 v 124.125 l -2.025,-2.025 c -18.75,-18.75 -49.125,-18.75 -67.875,0 -18.75,18.75 -18.75,49.125 0,67.875 l 65.775,65.775 c 36,36 84.825,56.25 135.75,56.25 h 6.375 6 c 1.125,0 2.25,-0.075 3.375,-0.3 68.775,-4.65 123.75,-59.55 128.325,-128.325 0.225,-1.125 0.3,-2.25 0.3,-3.375 V 184 c 0,-26.475 -21.525,-48 -48,-48 -4.125,0 -8.175,0.525 -12,1.5 V 136 c 0,-26.475 -21.525,-48 -48,-48 -5.925,0 -11.55,1.05 -16.8,3 -7.8,-15.975 -24.225,-27 -43.2,-27 z m -12,72.075 c 0,0 0,-0.075 0,-0.075 v -24 c 0,-6.6 5.4,-12 12,-12 6.6,0 12,5.4 12,12 v 23.925 c 0,0 0,0.075 0,0.075 v 102 c 0,9.975 8.025,18 18,18 9.975,0 18,-8.025 18,-18 V 136 c 0,0 0,0 0,-0.075 0,-6.6 5.4,-12 12,-12 6.6,0 12,5.4 12,12 v 41.925 c 0,0 0,0.075 0,0.075 v 60 c 0,9.975 8.025,18 18,18 9.975,0 18,-8.025 18,-18 v -53.85 c 0,0 0,-0.075 0,-0.075 0,-6.6 5.4,-12 12,-12 6.6,0 12,5.4 12,12 v 129.675 c -0.075,0.45 -0.075,0.975 -0.15,1.425 -2.55,52.275 -44.475,94.2 -96.75,96.75 -0.45,0 -0.975,0.075 -1.425,0.15 h -3.675 -6.375 c -41.4,0 -81.075,-16.425 -110.325,-45.675 l -65.775,-65.85 c -4.65,-4.65 -4.65,-12.3 0,-16.95 4.65,-4.65 12.3,-4.65 16.95,0 l 32.775,32.775 c 5.175,5.175 12.9,6.675 19.65,3.9 6.75,-2.775 11.1,-9.375 11.1,-16.65 V 136 c 0,-6.6 5.4,-12 12,-12 6.6,0 12,5.325 12,11.925 V 238 c 0,9.975 8.025,18 18,18 9.975,0 18,-8.025 18,-18 z"
     id="path74"
     style="fill:#e6e6e6;stroke-width:0.75" />
</svg>
