<?xml version="1.0" encoding="UTF-8" standalone="no"?>
<svg
   viewBox="0 0 448 512"
   version="1.1"
   id="svg84"
   sodipodi:docname="linux.svg"
   inkscape:version="1.2.2 (b0a8486541, 2022-12-01)"
   xmlns:inkscape="http://www.inkscape.org/namespaces/inkscape"
   xmlns:sodipodi="http://sodipodi.sourceforge.net/DTD/sodipodi-0.dtd"
   xmlns="http://www.w3.org/2000/svg"
   xmlns:svg="http://www.w3.org/2000/svg">
  <defs
     id="defs88" />
  <sodipodi:namedview
     id="namedview86"
     pagecolor="#ffffff"
     bordercolor="#000000"
     borderopacity="0.25"
     inkscape:showpageshadow="2"
     inkscape:pageopacity="0.0"
     inkscape:pagecheckerboard="0"
     inkscape:deskcolor="#d1d1d1"
     showgrid="false"
     inkscape:zoom="1.6523438"
     inkscape:cx="223.92435"
     inkscape:cy="256"
     inkscape:window-width="1918"
     inkscape:window-height="1028"
     inkscape:window-x="0"
     inkscape:window-y="26"
     inkscape:window-maximized="1"
     inkscape:current-layer="svg84" />
  <!--!Font Awesome Free 6.5.2 by @fontawesome - https://fontawesome.com License - https://fontawesome.com/license/free Copyright 2024 Fonticons, Inc.-->
  <path
     d="m 221.62461,156.48026 c 0.75,0.375 1.35,1.275 2.25,1.275 0.825,0 2.1,-0.3 2.175,-1.125 0.15,-1.05 -1.425,-1.725 -2.4,-2.175 -1.275,-0.525 -2.925,-0.75 -4.125,-0.075 -0.3,0.15 -0.6,0.525 -0.45,0.825 0.225,0.975 1.725,0.825 2.55,1.275 z m -16.425,1.275 c 0.9,0 1.5,-0.9 2.25,-1.275 0.825,-0.45 2.325,-0.3 2.625,-1.2 0.15,-0.3 -0.15,-0.675 -0.45,-0.825 -1.2,-0.675 -2.85,-0.45 -4.125,0.075 -0.975,0.45 -2.55,1.125 -2.4,2.175 0.075,0.75 1.35,1.125 2.1,1.05 z m 165.825,209.1 c -2.7,-3 -3.975,-8.7 -5.4,-14.775 -1.35,-6.075 -2.925,-12.6 -7.875,-16.8 -0.975,-0.825 -1.95,-1.575 -3,-2.175 -0.975,-0.6 -2.025,-1.125 -3.075,-1.5 6.9,-20.475 4.2,-40.875 -2.775,-59.325 -8.55,-22.575 -23.475,-42.3 -34.875,-55.8 -12.825,-16.125 -25.275,-31.425 -25.05,-54 0.375,-34.425 3.825,-98.400004 -56.85,-98.475004 -76.8,-0.15 -57.6,77.550004 -58.425,101.400004 -1.275,17.55 -4.8,31.35 -16.875,48.525 -14.175,16.875 -34.125,44.1 -43.575,72.525 -4.5,13.425 -6.6,27.075 -4.65,39.975 -4.875,4.35 -8.55,11.025 -12.450001,15.15 -3.15,3.225 -7.725,4.425 -12.75,6.225 -5.025,1.8 -10.5,4.5 -13.875,10.875 -1.575,2.925 -2.1,6.075 -2.1,9.3 0,2.925 0.45,5.925 0.9,8.85 0.9,6.075 1.875,11.775 0.6,15.6 -3.9,10.8 -4.425,18.3 -1.65,23.775 2.85,5.475 8.55,7.875 15.075,9.225 12.975,2.7 30.600001,2.025 44.475001,9.375 14.85,7.8 29.925,10.575 41.925,7.8 8.7,-1.95 15.825,-7.2 19.425,-15.15 9.375,-0.075 19.725,-4.05 36.225,-4.95 11.175,-0.9 25.2,3.975 41.325,3.075 0.45,1.725 1.05,3.45 1.875,5.025 v 0.075 c 6.225,12.525 17.85,18.225 30.225,17.25 12.45,-0.975 25.575,-8.25 36.225,-20.925 10.2,-12.3 27,-17.4 38.175,-24.15 5.55,-3.375 10.05,-7.575 10.425,-13.725 0.3,-6.15 -3.3,-12.975 -11.625,-22.275 z m -147.225,-237.375 c 7.35,-16.65 25.65,-16.35 33,-0.3 4.875,10.65 2.7,23.175 -3.225,30.3 -1.2,-0.6 -4.425,-1.95 -9.45,-3.675 0.825,-0.9 2.325,-2.025 2.925,-3.45 3.6,-8.85 -0.15,-20.25 -6.825,-20.475 -5.475,-0.375 -10.425,8.1 -8.85,17.25 -3.075,-1.5 -7.05,-2.625 -9.75,-3.3 -0.75,-5.175 -0.225,-10.95 2.175,-16.35 z m -30.525,-8.625 c 7.575,0 15.6,10.65 14.325,25.125 -2.625,0.75 -5.325,1.875 -7.65,3.45 0.9,-6.675 -2.475,-15.075 -7.2,-14.7 -6.3,0.525 -7.35,15.9 -1.35,21.075 0.75,0.6 1.425,-0.15 -4.425,4.125 -11.7,-10.95 -7.875,-39.075 6.3,-39.075 z m -10.2,45.525 c 4.65,-3.45 10.2,-7.5 10.575,-7.875 3.525,-3.3 10.125,-10.65 20.925,-10.65 5.325,0 11.7,1.725 19.425,6.675 4.725,3.075 8.475,3.3 16.95,6.975 6.3,2.625 10.275,7.275 7.875,13.65 -1.95,5.325 -8.25,10.8 -17.025,13.575 -8.325,2.7 -14.85,12 -28.65,11.175 -2.925,-0.15 -5.25,-0.75 -7.2,-1.575 -6,-2.625 -9.15,-7.8 -15,-11.25 -6.45,-3.6 -9.9,-7.8 -11.025,-11.475 -1.05,-3.675 0,-6.75 3.15,-9.225 z m 2.475,250.5 c -2.025,26.325 -32.925,25.8 -56.475,13.5 -22.425,-11.85 -51.450001,-4.875 -57.375001,-16.425 -1.8,-3.525 -1.8,-9.525 1.95,-19.8 v -0.15 c 1.8,-5.7 0.45,-12 -0.45,-17.925 -0.9,-5.85 -1.35,-11.25 0.675,-15 2.625,-5.025 6.375,-6.825 11.1,-8.475 7.725,-2.775 8.85,-2.55 14.7,-7.425 4.125001,-4.275 7.125001,-9.675 10.725001,-13.5 3.825,-4.125 7.5,-6.075 13.275,-5.175 6.075,0.9 11.325,5.1 16.425,12 l 14.7,26.7 c 7.125,14.925 32.325,36.3 30.75,51.675 z m -1.05,-19.425 c -3.075,-4.95 -7.2,-10.2 -10.8,-14.7 5.325,0 10.65,-1.65 12.525,-6.675 1.725,-4.65 0,-11.175 -5.55,-18.675 -10.125,-13.65 -28.725,-24.375 -28.725,-24.375 -10.125,-6.3 -15.825,-14.025 -18.45,-22.425 -2.625,-8.4 -2.25,-17.475 -0.225,-26.4 3.9,-17.175 13.95,-33.9 20.4,-44.4 1.725,-1.275 0.6,2.4 -6.525,15.6 -6.375,12.075 -18.3,39.975 -1.95,61.8 0.45,-15.525 4.125,-31.35 10.35,-46.125 9,-20.55 27.975,-56.175 29.475,-84.525 0.825,0.6 3.45,2.4 4.65,3.075 3.45,2.025 6.075,5.025 9.45,7.725 9.3,7.5 21.375,6.9 31.8,0.9 4.65,-2.625 8.4,-5.625 11.925,-6.75 7.425,-2.325 13.35,-6.45 16.725,-11.25 5.775,22.8 19.275,55.725 27.9,71.775 4.575,8.55 13.725,26.625 17.7,48.45 2.475,-0.075 5.25,0.3 8.175,1.05 10.35,-26.775 -8.775,-55.65 -17.475,-63.675 -3.525,-3.45 -3.675,-4.95 -1.95,-4.875 9.45,8.4 21.9,25.275 26.4,44.25 2.1,8.7 2.475,17.775 0.3,26.775 12.3,5.1 26.925,13.425 23.025,26.1 -1.65,-0.075 -2.4,0 -3.15,0 2.4,-7.575 -2.925,-13.2 -17.1,-19.575 -14.7,-6.45 -27,-6.45 -28.725,9.375 -9.075,3.15 -13.725,11.025 -16.05,20.475 -2.1,8.4 -2.7,18.525 -3.3,29.925 -0.375,5.775 -2.7,13.5 -5.1,21.75 -24.075,17.175 -57.525,24.675 -85.725,5.4 z m 193.05,-8.625 c -0.675,12.6 -30.9,14.925 -47.4,34.875 -9.9,11.775 -22.05,18.3 -32.7,19.125 -10.65,0.825 -19.875,-3.6 -25.275,-14.475 -3.525,-8.325 -1.8,-17.325 0.825,-27.225 2.775,-10.65 6.9,-21.6 7.425,-30.45 0.6,-11.4 1.275,-21.375 3.15,-29.025 1.95,-7.725 4.95,-12.9 10.275,-15.825 0.225,-0.15 0.525,-0.225 0.75,-0.375 0.6,9.9 5.475,19.95 14.1,22.125 9.45,2.475 23.025,-5.625 28.8,-12.225 6.75,-0.225 11.775,-0.675 16.95,3.825 7.425,6.375 5.325,22.725 12.825,31.2 7.95,8.7 10.5,14.625 10.275,18.45 z m -191.55,-213.3 c 1.5,1.425 3.525,3.375 6,5.325 4.95,3.9 11.85,7.95 20.475,7.95 8.7,0 16.875,-4.425 23.85,-8.1 3.675,-1.95 8.175,-5.25 11.1,-7.8 2.925,-2.55 4.425,-4.725 2.325,-4.95 -2.1,-0.225 -1.95,1.95 -4.5,3.825 -3.3,2.4 -7.275,5.55 -10.425,7.35 -5.55,3.15 -14.625,7.65 -22.425,7.65 -7.8,0 -14.025,-3.6 -18.675,-7.275 -2.325,-1.875 -4.275,-3.75 -5.775,-5.175 -1.125,-1.05 -1.425,-3.45 -3.225,-3.675 -1.05,-0.075 -1.35,2.775 1.275,4.875 z"
     id="path82"
     style="fill:#e6e6e6;stroke-width:0.75" />
</svg>
