<?xml version="1.0" encoding="UTF-8" standalone="no"?>
<svg
   viewBox="0 0 320 512"
   version="1.1"
   id="svg92"
   sodipodi:docname="map-pin-solid.svg"
   inkscape:version="1.2.2 (b0a8486541, 2022-12-01)"
   xmlns:inkscape="http://www.inkscape.org/namespaces/inkscape"
   xmlns:sodipodi="http://sodipodi.sourceforge.net/DTD/sodipodi-0.dtd"
   xmlns="http://www.w3.org/2000/svg"
   xmlns:svg="http://www.w3.org/2000/svg">
  <defs
     id="defs96" />
  <sodipodi:namedview
     id="namedview94"
     pagecolor="#ffffff"
     bordercolor="#000000"
     borderopacity="0.25"
     inkscape:showpageshadow="2"
     inkscape:pageopacity="0.0"
     inkscape:pagecheckerboard="0"
     inkscape:deskcolor="#d1d1d1"
     showgrid="false"
     inkscape:zoom="1.6523438"
     inkscape:cx="159.77305"
     inkscape:cy="256"
     inkscape:window-width="1918"
     inkscape:window-height="1028"
     inkscape:window-x="0"
     inkscape:window-y="26"
     inkscape:window-maximized="1"
     inkscape:current-layer="svg92" />
  <!--!Font Awesome Free 6.5.2 by @fontawesome - https://fontawesome.com License - https://fontawesome.com/license/free Copyright 2024 Fonticons, Inc.-->
  <path
     d="m 52,172 a 108,108 0 1 1 216,0 108,108 0 1 1 -216,0 z m 108,-48 c 6.6,0 12,-5.4 12,-12 0,-6.6 -5.4,-12 -12,-12 -39.75,0 -72,32.25 -72,72 0,6.6 5.4,12 12,12 6.6,0 12,-5.4 12,-12 0,-26.475 21.525,-48 48,-48 z M 136,424 V 301.825 c 7.8,1.425 15.825,2.175 24,2.175 8.175,0 16.2,-0.75 24,-2.175 V 424 c 0,13.275 -10.725,24 -24,24 -13.275,0 -24,-10.725 -24,-24 z"
     id="path90"
     style="fill:#e6e6e6;stroke-width:0.75" />
</svg>
