<?xml version="1.0" encoding="UTF-8" standalone="no"?>
<svg
   viewBox="0 0 512 512"
   version="1.1"
   id="svg28"
   sodipodi:docname="maximized_focus_inactive.svg"
   inkscape:version="1.2.2 (b0a8486541, 2022-12-01)"
   xmlns:inkscape="http://www.inkscape.org/namespaces/inkscape"
   xmlns:sodipodi="http://sodipodi.sourceforge.net/DTD/sodipodi-0.dtd"
   xmlns="http://www.w3.org/2000/svg"
   xmlns:svg="http://www.w3.org/2000/svg">
  <defs
     id="defs32" />
  <sodipodi:namedview
     id="namedview30"
     pagecolor="#ffffff"
     bordercolor="#000000"
     borderopacity="0.25"
     inkscape:showpageshadow="2"
     inkscape:pageopacity="0.0"
     inkscape:pagecheckerboard="0"
     inkscape:deskcolor="#d1d1d1"
     showgrid="false"
     inkscape:zoom="1.6523438"
     inkscape:cx="144.03782"
     inkscape:cy="252.97399"
     inkscape:window-width="1918"
     inkscape:window-height="1028"
     inkscape:window-x="0"
     inkscape:window-y="26"
     inkscape:window-maximized="1"
     inkscape:current-layer="svg28" />
  <!--!Font Awesome Free 6.5.2 by @fontawesome - https://fontawesome.com License - https://fontawesome.com/license/free Copyright 2024 Fonticons, Inc.-->
  <path
     d="M 214,88 H 106 c -9.975,0 -18,8.025 -18,18 v 108 c 0,7.275 4.35,13.875 11.1,16.65 6.75,2.775 14.475,1.275 19.65,-3.9 l 30,-30 59.25,59.25 -59.25,59.25 -30,-30 c -5.175,-5.175 -12.9,-6.675 -19.65,-3.9 C 92.35,284.125 88,290.725 88,298 v 108 c 0,9.975 8.025,18 18,18 h 108 c 7.275,0 13.875,-4.35 16.65,-11.1 2.775,-6.75 1.275,-14.475 -3.9,-19.65 l -30,-30 L 256,304 l 59.25,59.25 -30,30 c -5.175,5.175 -6.675,12.9 -3.9,19.65 2.775,6.75 9.375,11.1 16.65,11.1 h 108 c 9.975,0 18,-8.025 18,-18 V 298 c 0,-7.275 -4.35,-13.875 -11.1,-16.65 -6.75,-2.775 -14.475,-1.275 -19.65,3.9 l -30,30 L 304,256 l 59.25,-59.25 30,30 c 5.175,5.175 12.9,6.675 19.65,3.9 6.75,-2.775 11.1,-9.375 11.1,-16.65 V 106 c 0,-9.975 -8.025,-18 -18,-18 H 298 c -7.275,0 -13.875,4.35 -16.65,11.1 -2.775,6.75 -1.275,14.475 3.9,19.65 l 30,30 L 256,208 l -59.25,-59.25 30,-30 c 5.175,-5.175 6.675,-12.9 3.9,-19.65 C 227.875,92.35 221.275,88 214,88 Z"
     id="path26"
     style="fill:#e6e6e6;stroke-width:0.75" />
</svg>
