<?xml version="1.0" encoding="UTF-8" standalone="no"?>
<svg
   viewBox="0 0 512 512"
   version="1.1"
   id="svg100"
   sodipodi:docname="mug-hot-solid.svg"
   inkscape:version="1.2.2 (b0a8486541, 2022-12-01)"
   xmlns:inkscape="http://www.inkscape.org/namespaces/inkscape"
   xmlns:sodipodi="http://sodipodi.sourceforge.net/DTD/sodipodi-0.dtd"
   xmlns="http://www.w3.org/2000/svg"
   xmlns:svg="http://www.w3.org/2000/svg">
  <defs
     id="defs104" />
  <sodipodi:namedview
     id="namedview102"
     pagecolor="#ffffff"
     bordercolor="#000000"
     borderopacity="0.25"
     inkscape:showpageshadow="2"
     inkscape:pageopacity="0.0"
     inkscape:pagecheckerboard="0"
     inkscape:deskcolor="#d1d1d1"
     showgrid="false"
     inkscape:zoom="1.6523438"
     inkscape:cx="256"
     inkscape:cy="256"
     inkscape:window-width="1918"
     inkscape:window-height="1028"
     inkscape:window-x="0"
     inkscape:window-y="26"
     inkscape:window-maximized="1"
     inkscape:current-layer="svg100" />
  <!--!Font Awesome Free 6.5.2 by @fontawesome - https://fontawesome.com License - https://fontawesome.com/license/free Copyright 2024 Fonticons, Inc.-->
  <path
     d="m 130,64 c -9.975,0 -18,8.025 -18,18 0,29.175 17.55,44.55 29.325,54.825 l 0.825,0.75 c 12.225,10.65 17.85,16.35 17.85,28.425 0,9.975 8.025,18 18,18 9.975,0 18,-8.025 18,-18 0,-29.175 -17.55,-44.55 -29.325,-54.825 l -0.825,-0.75 C 153.625,99.775 148,94.075 148,82 148,72.025 139.975,64 130,64 Z M 88,208 c -13.275,0 -24,10.725 -24,24 v 144 c 0,39.75 32.25,72 72,72 h 144 c 39.75,0 72,-32.25 72,-72 h 12 c 46.425,0 84,-37.575 84,-84 0,-46.425 -37.575,-84 -84,-84 h -36 z m 264,48 h 12 c 19.875,0 36,16.125 36,36 0,19.875 -16.125,36 -36,36 H 352 Z M 232,82 c 0,-9.975 -8.025,-18 -18,-18 -9.975,0 -18,8.025 -18,18 0,29.175 17.55,44.55 29.325,54.825 l 0.825,0.75 c 12.225,10.65 17.85,16.35 17.85,28.425 0,9.975 8.025,18 18,18 9.975,0 18,-8.025 18,-18 0,-29.175 -17.55,-44.55 -29.325,-54.825 l -0.825,-0.75 C 237.625,99.775 232,94.075 232,82 Z"
     id="path98"
     style="fill:#e6e6e6;stroke-width:0.75" />
</svg>
