<?xml version="1.0" encoding="UTF-8" standalone="no"?>
<svg
   viewBox="0 0 448 512"
   version="1.1"
   id="svg44"
   sodipodi:docname="ontop_focus_inactive.svg"
   inkscape:version="1.2.2 (b0a8486541, 2022-12-01)"
   xmlns:inkscape="http://www.inkscape.org/namespaces/inkscape"
   xmlns:sodipodi="http://sodipodi.sourceforge.net/DTD/sodipodi-0.dtd"
   xmlns="http://www.w3.org/2000/svg"
   xmlns:svg="http://www.w3.org/2000/svg">
  <defs
     id="defs48" />
  <sodipodi:namedview
     id="namedview46"
     pagecolor="#ffffff"
     bordercolor="#000000"
     borderopacity="0.25"
     inkscape:showpageshadow="2"
     inkscape:pageopacity="0.0"
     inkscape:pagecheckerboard="0"
     inkscape:deskcolor="#d1d1d1"
     showgrid="false"
     inkscape:zoom="1.6523438"
     inkscape:cx="111.35697"
     inkscape:cy="255.99999"
     inkscape:window-width="1918"
     inkscape:window-height="1028"
     inkscape:window-x="0"
     inkscape:window-y="26"
     inkscape:window-maximized="1"
     inkscape:current-layer="svg44" />
  <!--!Font Awesome Free 6.5.2 by @fontawesome - https://fontawesome.com License - https://fontawesome.com/license/free Copyright 2024 Fonticons, Inc.-->
  <path
     d="M 320.9,88 H 127.1 C 87.8,88 56,119.8 56,159.1 v 193.8 c 0,39.3 31.8,71.1 71.1,71.1 h 193.8 c 39.3,0 71.1,-31.8 71.1,-71.1 V 159.1 C 392,119.8 360.2,88 320.9,88 Z M 164.675,214.675 V 256.9 c 0,20.25 -16.425,36.675 -36.675,36.675 v -115.65 c 0,-9.9 8.025,-17.925 17.925,-17.925 h 115.65 c 0,20.25 -16.425,36.675 -36.675,36.675 h -42.225 c -9.225,-0.45 -18.45,8.7 -18,18 z m 132.225,54 h -42.225 c -9.225,-0.45 -18.45,8.7 -18,18 V 328.9 c 0,20.25 -16.425,36.675 -36.675,36.675 v -115.65 c 0,-9.9 8.025,-17.925 17.925,-17.925 h 115.65 c 0,20.25 -16.425,36.675 -36.675,36.675 z"
     id="path42"
     style="fill:#e6e6e6;stroke-width:0.75" />
</svg>
