<?xml version="1.0" encoding="UTF-8" standalone="no"?>
<svg
   viewBox="0 0 448 512"
   version="1.1"
   id="svg116"
   sodipodi:docname="square-minus-regular.svg"
   inkscape:version="1.2.2 (b0a8486541, 2022-12-01)"
   xmlns:inkscape="http://www.inkscape.org/namespaces/inkscape"
   xmlns:sodipodi="http://sodipodi.sourceforge.net/DTD/sodipodi-0.dtd"
   xmlns="http://www.w3.org/2000/svg"
   xmlns:svg="http://www.w3.org/2000/svg">
  <defs
     id="defs120" />
  <sodipodi:namedview
     id="namedview118"
     pagecolor="#ffffff"
     bordercolor="#000000"
     borderopacity="0.25"
     inkscape:showpageshadow="2"
     inkscape:pageopacity="0.0"
     inkscape:pagecheckerboard="0"
     inkscape:deskcolor="#d1d1d1"
     showgrid="false"
     inkscape:zoom="1.6523438"
     inkscape:cx="223.92435"
     inkscape:cy="256"
     inkscape:window-width="1918"
     inkscape:window-height="1028"
     inkscape:window-x="0"
     inkscape:window-y="26"
     inkscape:window-maximized="1"
     inkscape:current-layer="svg116" />
  <!--!Font Awesome Free 6.5.2 by @fontawesome - https://fontawesome.com License - https://fontawesome.com/license/free Copyright 2024 Fonticons, Inc.-->
  <path
     d="m 104,124 c -6.6,0 -12,5.4 -12,12 v 240 c 0,6.6 5.4,12 12,12 h 240 c 6.6,0 12,-5.4 12,-12 V 136 c 0,-6.6 -5.4,-12 -12,-12 z m -48,12 c 0,-26.475 21.525,-48 48,-48 h 240 c 26.475,0 48,21.525 48,48 v 240 c 0,26.475 -21.525,48 -48,48 H 104 C 77.525,424 56,402.475 56,376 Z m 114,102 h 108 c 9.975,0 18,8.025 18,18 0,9.975 -8.025,18 -18,18 H 170 c -9.975,0 -18,-8.025 -18,-18 0,-9.975 8.025,-18 18,-18 z"
     id="path114"
     style="fill:#e6e6e6;stroke-width:0.75" />
</svg>
