<?xml version="1.0" encoding="UTF-8" standalone="no"?>
<svg
   viewBox="0 0 512 512"
   version="1.1"
   id="svg262"
   sodipodi:docname="sticky_focus_inactive.svg"
   inkscape:version="1.2.2 (b0a8486541, 2022-12-01)"
   xmlns:inkscape="http://www.inkscape.org/namespaces/inkscape"
   xmlns:sodipodi="http://sodipodi.sourceforge.net/DTD/sodipodi-0.dtd"
   xmlns="http://www.w3.org/2000/svg"
   xmlns:svg="http://www.w3.org/2000/svg">
  <defs
     id="defs266" />
  <sodipodi:namedview
     id="namedview264"
     pagecolor="#ffffff"
     bordercolor="#000000"
     borderopacity="0.25"
     inkscape:showpageshadow="2"
     inkscape:pageopacity="0.0"
     inkscape:pagecheckerboard="0"
     inkscape:deskcolor="#d1d1d1"
     showgrid="false"
     inkscape:zoom="1.6523438"
     inkscape:cx="144.03782"
     inkscape:cy="255.99999"
     inkscape:window-width="1918"
     inkscape:window-height="1028"
     inkscape:window-x="0"
     inkscape:window-y="26"
     inkscape:window-maximized="1"
     inkscape:current-layer="svg262" />
  <!--!Font Awesome Free 6.5.2 by @fontawesome - https://fontawesome.com License - https://fontawesome.com/license/free Copyright 2024 Fonticons, Inc.-->
  <path
     d="m 274.86875,225.68907 -191.625,191.55 c -7.05,7.05 -7.05,18.45 0,25.425 7.05,6.975 18.45,7.05 25.425,0 l 42.75,-42.75 h 51 c 37.275,0 73.425,-10.8 104.25,-30.75 8.325,-5.4 4.125,-17.25 -5.85,-17.25 -3.825,0 -6.9,-3.075 -6.9,-6.9 0,-3.075 2.025,-5.7 4.875,-6.6 l 60.75,-18.225 c 1.875,-0.6 3.6,-1.575 5.025,-3 l 16.8,-16.8 c 7.575,-7.575 2.175,-20.475 -8.475,-20.475 h -24.15 c -3.825,0 -6.9,-3.075 -6.9,-6.9 0,-3.075 2.025,-5.7 4.875,-6.6 l 84,-25.2 c 3,-0.9 5.55,-2.925 6.975,-5.775 8.1,-15.75 12.3,-33.375 12.3,-51.45 0,-30.75 -12.225,-60.225 -33.975,-81.975 l -4.125,-4.125001 c -21.675,-21.675 -51.15,-33.9 -81.9,-33.9 -30.75,0 -60.225,12.225 -81.975,33.975 l -77.775,77.775001 c -36,36 -56.25,84.825 -56.25,135.75 v 41.475 l 142.2,-142.125 c 4.65,-4.65 12.3,-4.65 16.95,0 4.05,4.05 4.575,10.2 1.65,14.85 z"
     id="path260"
     style="fill:#e6e6e6;stroke-width:0.75" />
</svg>
