<?xml version="1.0" encoding="UTF-8" standalone="no"?>
<svg
   viewBox="0 0 512 512"
   version="1.1"
   id="svg282"
   sodipodi:docname="up-down-left-right-solid.svg"
   inkscape:version="1.2.2 (b0a8486541, 2022-12-01)"
   xmlns:inkscape="http://www.inkscape.org/namespaces/inkscape"
   xmlns:sodipodi="http://sodipodi.sourceforge.net/DTD/sodipodi-0.dtd"
   xmlns="http://www.w3.org/2000/svg"
   xmlns:svg="http://www.w3.org/2000/svg">
  <defs
     id="defs286" />
  <sodipodi:namedview
     id="namedview284"
     pagecolor="#ffffff"
     bordercolor="#000000"
     borderopacity="0.25"
     inkscape:showpageshadow="2"
     inkscape:pageopacity="0.0"
     inkscape:pagecheckerboard="0"
     inkscape:deskcolor="#d1d1d1"
     showgrid="false"
     inkscape:zoom="1.6523438"
     inkscape:cx="144.03782"
     inkscape:cy="271.13002"
     inkscape:window-width="1918"
     inkscape:window-height="1028"
     inkscape:window-x="0"
     inkscape:window-y="26"
     inkscape:window-maximized="1"
     inkscape:current-layer="svg282" />
  <!--!Font Awesome Free 6.5.2 by @fontawesome - https://fontawesome.com License - https://fontawesome.com/license/free Copyright 2024 Fonticons, Inc.-->
  <path
     d="m 272.95,71.0625 c -9.375,-9.375 -24.6,-9.375 -33.975,0 l -48,48 c -6.9,6.9 -8.925,17.175 -5.175,26.175 3.75,9 12.45,14.85 22.2,14.85 h 24 v 72 h -72 v -24.075 c 0,-9.675 -5.85,-18.45 -14.85,-22.2 -9,-3.75 -19.275,-1.65 -26.175,5.175 l -48,48 c -9.375,9.375 -9.375,24.6 0,33.975 l 48,48 c 6.9,6.9 17.175,8.925 26.175,5.175 9,-3.75 14.85,-12.45 14.85,-22.2 v -23.925 h 72 v 72 h -24 c -9.675,0 -18.45,5.85 -22.2,14.85 -3.75,9 -1.65,19.275 5.175,26.175 l 48,48 c 9.375,9.375 24.6,9.375 33.975,0 l 48,-48 c 6.9,-6.9 8.925,-17.175 5.175,-26.175 -3.75,-9 -12.45,-14.85 -22.2,-14.85 H 280 v -72 h 72 v 24 c 0,9.675 5.85,18.45 14.85,22.2 9,3.75 19.275,1.65 26.175,-5.175 l 48,-48 c 9.375,-9.375 9.375,-24.6 0,-33.975 l -48,-48 c -6.9,-6.9 -17.175,-8.925 -26.175,-5.175 -9,3.75 -14.85,12.45 -14.85,22.2 v 24 h -72 v -72.075 h 24 c 9.675,0 18.45,-5.85 22.2,-14.85 3.75,-9 1.65,-19.275 -5.175,-26.175 l -48,-48 z"
     id="path280"
     style="fill:#e6e6e6;stroke-width:0.75" />
</svg>
