<?xml version="1.0" encoding="UTF-8" standalone="no"?>
<svg
   viewBox="0 0 512 512"
   version="1.1"
   id="svg148"
   sodipodi:docname="window-restore-solid.svg"
   inkscape:version="1.2.2 (b0a8486541, 2022-12-01)"
   xmlns:inkscape="http://www.inkscape.org/namespaces/inkscape"
   xmlns:sodipodi="http://sodipodi.sourceforge.net/DTD/sodipodi-0.dtd"
   xmlns="http://www.w3.org/2000/svg"
   xmlns:svg="http://www.w3.org/2000/svg">
  <defs
     id="defs152" />
  <sodipodi:namedview
     id="namedview150"
     pagecolor="#ffffff"
     bordercolor="#000000"
     borderopacity="0.25"
     inkscape:showpageshadow="2"
     inkscape:pageopacity="0.0"
     inkscape:pagecheckerboard="0"
     inkscape:deskcolor="#d1d1d1"
     showgrid="false"
     inkscape:zoom="1.6523438"
     inkscape:cx="115.59338"
     inkscape:cy="256"
     inkscape:window-width="1918"
     inkscape:window-height="1028"
     inkscape:window-x="0"
     inkscape:window-y="26"
     inkscape:window-maximized="1"
     inkscape:current-layer="svg148" />
  <!--!Font Awesome Free 6.5.2 by @fontawesome - https://fontawesome.com License - https://fontawesome.com/license/free Copyright 2024 Fonticons, Inc.-->
  <path
     d="M 388,112 H 220 c -6.6,0 -12,5.4 -12,12 v 12 h -48 v -12 c 0,-33.15 26.85,-60 60,-60 h 168 c 33.15,0 60,26.85 60,60 v 168 c 0,33.15 -26.85,60 -60,60 h -12 v -48 h 12 c 6.6,0 12,-5.4 12,-12 V 124 c 0,-6.6 -5.4,-12 -12,-12 z M 64,208 c 0,-26.475 21.525,-48 48,-48 h 192 c 26.475,0 48,21.525 48,48 v 192 c 0,26.475 -21.525,48 -48,48 H 112 C 85.525,448 64,426.475 64,400 Z m 48,24 c 0,13.275 10.725,24 24,24 h 144 c 13.275,0 24,-10.725 24,-24 0,-13.275 -10.725,-24 -24,-24 H 136 c -13.275,0 -24,10.725 -24,24 z"
     id="path146"
     style="fill:#e6e6e6;stroke-width:0.75" />
</svg>
