<?xml version="1.0" encoding="UTF-8" standalone="no"?>
<svg
   viewBox="0 0 474 512"
   version="1.1"
   id="svg4"
   sodipodi:docname="xmark-solid-white.svg"
   width="474"
   height="512"
   inkscape:version="1.2.2 (b0a8486541, 2022-12-01)"
   xmlns:inkscape="http://www.inkscape.org/namespaces/inkscape"
   xmlns:sodipodi="http://sodipodi.sourceforge.net/DTD/sodipodi-0.dtd"
   xmlns="http://www.w3.org/2000/svg"
   xmlns:svg="http://www.w3.org/2000/svg">
  <defs
     id="defs8" />
  <sodipodi:namedview
     id="namedview6"
     pagecolor="#ffffff"
     bordercolor="#000000"
     borderopacity="0.25"
     inkscape:showpageshadow="2"
     inkscape:pageopacity="0.0"
     inkscape:pagecheckerboard="0"
     inkscape:deskcolor="#d1d1d1"
     showgrid="false"
     inkscape:zoom="1.6523438"
     inkscape:cx="191.8487"
     inkscape:cy="256"
     inkscape:window-width="1918"
     inkscape:window-height="1028"
     inkscape:window-x="0"
     inkscape:window-y="26"
     inkscape:window-maximized="1"
     inkscape:current-layer="svg4" />
  <!--!Font Awesome Free 6.5.2 by @fontawesome - https://fontawesome.com License - https://fontawesome.com/license/free Copyright 2024 Fonticons, Inc.-->
  <path
     d="m 389.42628,150.6 c 12.5,-12.5 12.5,-32.8 0,-45.3 -12.5,-12.499999 -32.8,-12.499999 -45.3,0 l -105.3,105.4 -105.4,-105.3 c -12.5,-12.499999 -32.8,-12.499999 -45.300002,0 -12.5,12.5 -12.5,32.8 0,45.3 L 193.52628,256 88.226278,361.4 c -12.5,12.5 -12.5,32.8 0,45.3 12.500002,12.5 32.800002,12.5 45.300002,0 l 105.3,-105.4 105.4,105.3 c 12.5,12.5 32.8,12.5 45.3,0 12.5,-12.5 12.5,-32.8 0,-45.3 l -105.4,-105.3 z"
     id="path2"
     style="fill:#e6e6e6" />
</svg>
